<svg width="11" height="11" viewBox="0 0 11 11" fill="none" xmlns="http://www.w3.org/2000/svg">
<path d="M5.46755 0C2.45286 0 0 2.45286 0 5.46755C0 8.48223 2.45286 10.9351 5.46755 10.9351C8.48223 10.9351 10.9351 8.48223 10.9351 5.46755C10.9351 2.45286 8.48223 0 5.46755 0ZM8.52334 4.02872L5.02905 7.49561C4.8235 7.70115 4.49462 7.71486 4.27537 7.50931L2.42545 5.82383C2.2062 5.61828 2.1925 5.2757 2.38434 5.05645C2.58989 4.8372 2.93247 4.8235 3.15172 5.02905L4.61795 6.37195L7.74226 3.24764C7.96151 3.02839 8.30409 3.02839 8.52334 3.24764C8.74259 3.46689 8.74259 3.80947 8.52334 4.02872Z" fill="white"/>
</svg>
