<svg width="11" height="11" viewBox="0 0 11 11" fill="none" xmlns="http://www.w3.org/2000/svg">
<path d="M5.49905 0.237305C2.46699 0.237305 0 2.65149 0 5.61865C0 8.58581 2.46699 11 5.49905 11C8.53111 11 10.9981 8.58581 10.9981 5.61865C10.9981 2.65149 8.53111 0.237305 5.49905 0.237305ZM8.57245 4.20251L5.05802 7.61474C4.85129 7.81705 4.52052 7.83053 4.30001 7.62823L2.43943 5.96932C2.21891 5.76701 2.20513 5.42983 2.39808 5.21404C2.60481 4.99825 2.94937 4.98476 3.16988 5.18707L4.64456 6.5088L7.78688 3.43374C8.00739 3.21795 8.35194 3.21795 8.57245 3.43374C8.79297 3.64954 8.79297 3.98671 8.57245 4.20251Z" fill="#2196F3"/>
</svg>
