<svg width="24" height="24" viewBox="0 0 24 24" fill="none" xmlns="http://www.w3.org/2000/svg">
<path fill-rule="evenodd" clip-rule="evenodd" d="M11.9917 10.3372L15.4978 6.83112C15.7744 6.55449 16.2229 6.55449 16.4995 6.83112C16.7761 7.10774 16.7761 7.55623 16.4995 7.83285L12.9935 11.3389L16.4995 14.845C16.7761 15.1216 16.7761 15.5701 16.4995 15.8467C16.2229 16.1233 15.7744 16.1233 15.4978 15.8467L11.9917 12.3406L8.48567 15.8467C8.20905 16.1233 7.76056 16.1233 7.48394 15.8467C7.20732 15.5701 7.20732 15.1216 7.48394 14.845L10.99 11.3389L7.48394 7.83285C7.20732 7.55623 7.20732 7.10774 7.48394 6.83112C7.76056 6.55449 8.20905 6.55449 8.48567 6.83112L11.9917 10.3372Z" fill="#2196F3"/>
<path d="M12.0003 21.2499C17.4771 21.2499 21.9169 16.8101 21.9169 11.3333C21.9169 5.85649 17.4771 1.41666 12.0003 1.41666C6.52348 1.41666 2.08365 5.85649 2.08365 11.3333C2.08365 16.8101 6.52348 21.2499 12.0003 21.2499ZM12.0003 22.6666C5.74108 22.6666 0.666992 17.5925 0.666992 11.3333C0.666992 5.07409 5.74108 0 12.0003 0C18.2595 0 23.3336 5.07409 23.3336 11.3333C23.3336 17.5925 18.2595 22.6666 12.0003 22.6666Z" fill="#2196F3"/>
</svg>
