<svg width="24" height="24" viewBox="0 0 24 24" fill="none" xmlns="http://www.w3.org/2000/svg">
<g clip-path="url(#clip0_5078_4473)">
<path d="M22.5611 17.4442C23.4487 15.7505 23.9196 13.8442 23.9196 11.9198C23.9196 5.3472 18.5724 0 11.9998 0C5.42727 0 0.0800781 5.3472 0.0800781 11.9198C0.0800781 18.4923 5.42685 23.8395 11.9998 23.8395C13.8381 23.8395 15.5957 23.4295 17.2307 22.6289L18.3645 23.7627C18.5178 23.9156 18.722 23.9996 18.9387 23.9996C19.1555 23.9996 19.3596 23.9156 19.513 23.7622L23.6256 19.6492C23.7785 19.4963 23.8629 19.2922 23.8629 19.075C23.8629 18.8574 23.7785 18.6536 23.6256 18.5007L22.5611 17.4442ZM20.6073 15.5051C21.3143 15.2871 22.0141 15.0418 22.7035 14.7708C22.5157 15.4787 22.2569 16.1655 21.9335 16.8213L20.6073 15.5051ZM20.1889 11.0435C20.1007 10.8301 19.8826 10.7024 19.605 10.7024H16.7862C16.7522 9.92481 16.6905 9.1506 16.5955 8.38269C18.7241 8.73556 20.8282 9.32745 22.8707 10.1739C22.8942 10.1836 22.9186 10.1832 22.9429 10.1882C23.032 10.7528 23.079 11.3308 23.079 11.9198C23.079 12.5511 23.0211 13.1796 22.9148 13.7992C22.9001 13.8034 22.8849 13.8017 22.8707 13.8076C21.915 14.2033 20.9274 14.5499 19.9352 14.8385L18.3993 13.3144L20.0171 11.6971C20.2132 11.5009 20.2771 11.2569 20.1889 11.0435ZM10.5661 11.5148V15.929C9.79316 15.8899 9.02442 15.8227 8.26155 15.7219C7.92885 13.2413 7.92927 10.7343 8.26239 8.25373C10.7425 7.92061 13.2492 7.92019 15.7297 8.25289C15.8369 9.06364 15.9083 9.8807 15.9457 10.7032H11.3781C10.9303 10.7024 10.5661 11.0666 10.5661 11.5148ZM1.08281 13.7988C0.977789 13.1876 0.920238 12.5604 0.920238 11.9198C0.920238 11.3308 0.967287 10.7524 1.05634 10.1882C1.08029 10.1827 1.10507 10.184 1.1286 10.1739C3.16977 9.32829 5.27226 8.73682 7.39955 8.38353C7.09793 10.7788 7.09793 13.1964 7.39871 15.5917C5.25252 15.2401 3.1538 14.6465 1.1286 13.8076C1.11347 13.8013 1.09793 13.803 1.08281 13.7988ZM22.7463 9.22537C20.698 8.41504 18.5951 7.84037 16.4678 7.50767C16.1334 5.34594 15.5571 3.23041 14.7425 1.18463C18.6682 2.18778 21.7604 5.29343 22.7463 9.22537ZM13.7911 0.987188C13.794 1.03172 13.799 1.07624 13.8171 1.11951C14.656 3.14514 15.2504 5.24386 15.602 7.38962C13.2063 7.08843 10.7888 7.08885 8.39304 7.39046C8.74632 5.2636 9.3378 3.1611 10.1834 1.11993C10.2015 1.07666 10.2065 1.03172 10.2095 0.987608C10.7921 0.891829 11.3899 0.84016 11.9998 0.84016C12.6098 0.84016 13.2076 0.891829 13.7911 0.987188ZM9.25756 1.18421C8.43631 3.24722 7.85492 5.3661 7.51885 7.50977C5.39577 7.84289 3.29705 8.41672 1.25294 9.22537C2.23929 5.29301 5.33192 2.18736 9.25756 1.18421ZM1.29453 14.7734C3.30881 15.5661 5.38989 16.1298 7.51633 16.4587C7.84357 18.552 8.40648 20.6217 9.19623 22.6394C5.35292 21.6333 2.31826 18.61 1.29453 14.7734ZM10.1771 22.8469C9.33402 20.8082 8.7438 18.7091 8.39178 16.5852C9.11221 16.6742 9.83727 16.7343 10.5661 16.77V19.7417C10.5661 20.1693 10.845 20.3642 11.1038 20.3642C11.2164 20.3642 11.3861 20.3277 11.5604 20.1533L13.1383 18.536L14.774 20.1718C14.501 21.0779 14.1822 21.9782 13.8221 22.8486C13.2256 22.9469 12.6182 22.999 12.0003 22.999C11.379 22.9994 10.7703 22.9456 10.1771 22.8469ZM14.8018 22.6398C15.0337 22.0471 15.2466 21.4459 15.4399 20.8381L16.6001 21.9983C16.0162 22.2659 15.4164 22.4797 14.8018 22.6398ZM18.9387 23.1489L13.7323 17.942C13.5793 17.7887 13.3752 17.7047 13.158 17.7047C12.9408 17.7047 12.7367 17.7891 12.5838 17.942L11.4042 19.1216L11.3781 11.5425H18.9828L17.8049 12.7204C17.489 13.0368 17.489 13.5518 17.8053 13.8685L23.0316 19.0552L18.9387 23.1489Z" fill="#2196F3"/>
</g>
<defs>
<clipPath id="clip0_5078_4473">
<rect width="24" height="24" fill="white"/>
</clipPath>
</defs>
</svg>
