<svg width="24" height="24" viewBox="0 0 24 24" fill="none" xmlns="http://www.w3.org/2000/svg">
<path d="M4.99199 3.89205C5.30863 4.98809 5.18141 6.18943 4.58638 7.22006C3.99086 8.25154 3.01297 8.96266 1.90442 9.23597C1.74008 9.97234 1.65618 10.7301 1.65618 11.5001C1.65618 12.2701 1.74008 13.0279 1.90442 13.7643C3.01297 14.0376 3.99086 14.7487 4.58638 15.7802C5.18141 16.8108 5.30863 18.0122 4.99199 19.1082C6.11443 20.1428 7.45215 20.9193 8.91243 21.3754C9.70344 20.5517 10.8084 20.0603 11.9997 20.0603C13.1909 20.0603 14.2959 20.5517 15.0869 21.3754C16.5472 20.9193 17.8849 20.1428 19.0074 19.1082C18.6907 18.0122 18.8179 16.8108 19.413 15.7802C20.0085 14.7487 20.9864 14.0376 22.0949 13.7643C22.2593 13.0279 22.3432 12.2701 22.3432 11.5001C22.3432 10.7301 22.2593 9.97234 22.0949 9.23597C20.9864 8.96266 20.0085 8.25154 19.413 7.22006C18.8179 6.18943 18.6907 4.98809 19.0074 3.89205C17.8849 2.85741 16.5472 2.08094 15.0869 1.62486C14.2959 2.4485 13.1909 2.93999 11.9997 2.93999C10.8084 2.93999 9.70344 2.4485 8.91243 1.62486C7.45215 2.08094 6.11443 2.85741 4.99199 3.89205ZM14.5193 0.000244141C16.9417 0.528553 19.0855 1.80281 20.6977 3.57024C20.1592 4.43571 20.1033 5.56228 20.6485 6.50671C21.1944 7.45213 22.1995 7.96701 23.2194 7.93222C23.5769 9.0576 23.7699 10.2563 23.7699 11.5001C23.7699 12.7439 23.5769 13.9426 23.2194 15.068C22.1995 15.0332 21.1944 15.5481 20.6485 16.4935C20.1033 17.438 20.1592 18.5645 20.6977 19.43C19.0855 21.1974 16.9417 22.4717 14.5193 23C14.0394 22.0997 13.0911 21.4869 11.9997 21.4869C10.9083 21.4869 9.95996 22.0997 9.48005 23C7.05762 22.4717 4.91389 21.1974 3.30163 19.43C3.84011 18.5645 3.8961 17.438 3.35083 16.4935C2.805 15.5481 1.79983 15.0332 0.779974 15.068C0.422417 13.9426 0.229492 12.7439 0.229492 11.5001C0.229492 10.2563 0.422417 9.0576 0.779974 7.93222C1.79983 7.96701 2.805 7.45213 3.35083 6.50671C3.8961 5.56228 3.84011 4.43571 3.30163 3.57024C4.91389 1.80281 7.05762 0.528553 9.48005 0.000244141C9.95996 0.900522 10.9083 1.5133 11.9997 1.5133C13.0911 1.5133 14.0394 0.900522 14.5193 0.000244141ZM11.9997 7.22006C9.63586 7.22006 7.71961 9.13631 7.71961 11.5001C7.71961 13.8639 9.63586 15.7802 11.9997 15.7802C14.3635 15.7802 16.2797 13.8639 16.2797 11.5001C16.2797 9.13631 14.3635 7.22006 11.9997 7.22006ZM11.9997 8.64674C13.5756 8.64674 14.8531 9.92424 14.8531 11.5001C14.8531 13.076 13.5756 14.3535 11.9997 14.3535C10.4238 14.3535 9.1463 13.076 9.1463 11.5001C9.1463 9.92424 10.4238 8.64674 11.9997 8.64674Z" fill="#2196F3"/>
</svg>
