<svg width="24" height="24" viewBox="0 0 24 24" fill="none" xmlns="http://www.w3.org/2000/svg">
<g clip-path="url(#clip0_5638_101)">
<path d="M19.7428 15.1781V10.6181C19.7428 7.23097 17.575 4.27744 14.5905 3.17422C14.6253 3.00001 14.6447 2.82198 14.6447 2.64388C14.6447 1.18454 13.4602 0 12.0008 0C10.5415 0 9.35695 1.18454 9.35695 2.64388C9.35695 2.8181 9.37628 2.99225 9.40724 3.15871C8.38147 3.52259 7.43307 4.09935 6.62405 4.88128C5.0989 6.35226 4.25891 8.33031 4.25891 10.4516V15.1781C4.25891 15.3445 4.12342 15.4839 3.95308 15.4839C2.5247 15.4839 1.30532 16.56 1.1737 17.9304C1.10014 18.693 1.3518 19.4516 1.86663 20.0168C2.37757 20.5781 3.10922 20.9033 3.87176 20.9033H8.54017C8.73371 22.6414 10.2125 24.0001 12.0008 24.0001C13.7892 24.0001 15.2679 22.6414 15.4615 20.9033H20.1299C20.8925 20.9033 21.6241 20.5781 22.135 20.0168C22.646 19.4516 22.8976 18.693 22.828 17.9304C22.6963 16.56 21.4731 15.4839 20.0486 15.4839C19.8782 15.4838 19.7428 15.3483 19.7428 15.1781ZM12.0008 1.54836C12.6047 1.54836 13.0963 2.03998 13.0963 2.64382C13.0963 2.69411 13.0885 2.74059 13.0808 2.79088C12.8175 2.75216 12.5504 2.72508 12.2833 2.71732C11.8227 2.7018 11.3698 2.73283 10.9208 2.79476C10.913 2.74447 10.9052 2.69799 10.9052 2.6477C10.9054 2.03998 11.397 1.54836 12.0008 1.54836ZM12.0008 22.4516C11.068 22.4516 10.286 21.7857 10.104 20.9032H13.8976C13.7157 21.7858 12.9338 22.4516 12.0008 22.4516ZM21.2873 18.0774C21.3183 18.4103 21.2137 18.7316 20.9931 18.9755C20.7647 19.2194 20.4628 19.3548 20.1299 19.3548H3.87182C3.53891 19.3548 3.23702 19.2193 3.01244 18.9755C2.78793 18.7316 2.6834 18.4103 2.71437 18.0774C2.76854 17.4929 3.3144 17.0323 3.95308 17.0323C4.97504 17.0323 5.80727 16.2 5.80727 15.1781V10.4516C5.80727 8.75612 6.4808 7.17292 7.70018 5.99614C8.86533 4.86971 10.3828 4.25805 12.0008 4.25805C12.0783 4.25805 12.1518 4.25805 12.2292 4.26193C15.5157 4.37803 18.1944 7.23097 18.1944 10.6181V15.1781C18.1944 16.2 19.0266 17.0323 20.0486 17.0323C20.6873 17.0323 21.2292 17.4929 21.2873 18.0774Z" fill="#606060"/>
</g>
<defs>
<clipPath id="clip0_5638_101">
<rect width="24" height="24" fill="white"/>
</clipPath>
</defs>
</svg>
