<svg width="24" height="24" viewBox="0 0 24 24" fill="none" xmlns="http://www.w3.org/2000/svg">
<path d="M13.5832 5.48333C13.3532 5.48333 13.1665 5.29666 13.1665 5.06666V3.66667C13.1665 3.2075 12.7923 2.83333 12.3332 2.83333C11.874 2.83333 11.4998 3.2075 11.4998 3.66667V5.06666C11.4998 5.29666 11.3132 5.48333 11.0832 5.48333C10.8532 5.48333 10.6665 5.2975 10.6665 5.06666V3.66667C10.6665 2.7475 11.414 2 12.3332 2C13.2523 2 13.9998 2.7475 13.9998 3.66667V5.06666C13.9998 5.2975 13.8132 5.48333 13.5832 5.48333Z" fill="#606060"/>
<path d="M12.3332 22.0001C10.7248 22.0001 9.4165 20.6917 9.4165 19.0834C9.4165 18.8534 9.60317 18.6667 9.83317 18.6667C10.0632 18.6667 10.2498 18.8534 10.2498 19.0834C10.2498 20.2317 11.1848 21.1667 12.3332 21.1667C13.4815 21.1667 14.4165 20.2317 14.4165 19.0834C14.4165 18.8534 14.6032 18.6667 14.8332 18.6667C15.0632 18.6667 15.2498 18.8534 15.2498 19.0834C15.2498 20.6917 13.9415 22.0001 12.3332 22.0001Z" fill="#606060"/>
<path d="M19.4167 19.5H5.25C4.56083 19.5 4 18.9392 4 18.25C4 17.8842 4.15917 17.5383 4.4375 17.3C5.75083 16.19 6.5 14.575 6.5 12.865V10.3333C6.5 7.11667 9.11666 4.5 12.3333 4.5C15.55 4.5 18.1667 7.11667 18.1667 10.3333V12.865C18.1667 14.5758 18.9158 16.19 20.2225 17.2942C20.5075 17.5383 20.6667 17.8842 20.6667 18.25C20.6667 18.9392 20.1067 19.5 19.4167 19.5ZM12.3333 5.33333C9.57583 5.33333 7.33333 7.57583 7.33333 10.3333V12.865C7.33333 14.8217 6.47666 16.6675 4.9825 17.9308C4.88667 18.0125 4.83333 18.1283 4.83333 18.25C4.83333 18.48 5.02 18.6667 5.25 18.6667H19.4167C19.6467 18.6667 19.8333 18.48 19.8333 18.25C19.8333 18.1283 19.78 18.0125 19.6875 17.9333C18.1908 16.6675 17.3333 14.8208 17.3333 12.865V10.3333C17.3333 7.57583 15.0908 5.33333 12.3333 5.33333Z" fill="#606060"/>
</svg>
