<svg width="223" height="63" viewBox="0 0 223 63" fill="none" xmlns="http://www.w3.org/2000/svg">
<g clip-path="url(#clip0_1393_1267)">
<path d="M76.7639 43.7872C77.0128 43.7872 77.2309 43.7549 77.4184 43.6904C77.6088 43.6259 77.7671 43.5352 77.893 43.4185C78.0221 43.2986 78.1189 43.1573 78.1834 42.9945C78.2479 42.8286 78.2802 42.6458 78.2802 42.446C78.2802 42.0436 78.1542 41.7271 77.9023 41.4967C77.6534 41.2662 77.274 41.151 76.7639 41.151H75.7408V43.7872H76.7639ZM76.7639 40.3814C77.1879 40.3814 77.5566 40.4305 77.87 40.5288C78.1834 40.6272 78.443 40.767 78.6489 40.9482C78.8547 41.1264 79.0068 41.343 79.1051 41.5981C79.2065 41.8531 79.2572 42.1357 79.2572 42.446C79.2572 42.7564 79.2034 43.0421 79.0959 43.3033C78.9884 43.5613 78.8301 43.7841 78.6212 43.9715C78.4123 44.1589 78.1511 44.3049 77.8377 44.4093C77.5274 44.5107 77.1695 44.5614 76.7639 44.5614H75.7408V46.9994H74.7592V40.3814H76.7639ZM81.8443 43.2157C81.9949 42.9084 82.1761 42.6673 82.3881 42.4921C82.6001 42.317 82.8551 42.2294 83.1532 42.2294C83.2546 42.2294 83.3498 42.2417 83.4389 42.2663C83.5311 42.2878 83.611 42.3216 83.6786 42.3677L83.6186 43.0452C83.5971 43.1281 83.5464 43.1696 83.4666 43.1696C83.4235 43.1696 83.359 43.1619 83.273 43.1466C83.187 43.1281 83.0948 43.1189 82.9965 43.1189C82.8521 43.1189 82.7246 43.1404 82.614 43.1834C82.5034 43.2234 82.4035 43.2848 82.3144 43.3678C82.2284 43.4477 82.1516 43.5475 82.084 43.6673C82.0164 43.7841 81.9534 43.9177 81.895 44.0683V46.9994H80.9963V42.317H81.5125C81.6108 42.317 81.6769 42.3354 81.7107 42.3723C81.7475 42.4061 81.7737 42.4676 81.789 42.5567L81.8443 43.2157ZM87.1181 42.2433C87.4622 42.2433 87.7725 42.3001 88.049 42.4138C88.3286 42.5244 88.5652 42.6857 88.7587 42.8977C88.9554 43.1066 89.1059 43.3601 89.2104 43.6581C89.3148 43.9531 89.3671 44.2849 89.3671 44.6536C89.3671 45.0223 89.3148 45.3556 89.2104 45.6537C89.1059 45.9517 88.9554 46.2052 88.7587 46.4141C88.5652 46.623 88.3286 46.7843 88.049 46.898C87.7725 47.0086 87.4622 47.0639 87.1181 47.0639C86.7709 47.0639 86.4575 47.0086 86.1779 46.898C85.9014 46.7843 85.6648 46.623 85.4682 46.4141C85.2715 46.2052 85.1194 45.9517 85.0119 45.6537C84.9074 45.3556 84.8552 45.0223 84.8552 44.6536C84.8552 44.2849 84.9074 43.9531 85.0119 43.6581C85.1194 43.3601 85.2715 43.1066 85.4682 42.8977C85.6648 42.6857 85.9014 42.5244 86.1779 42.4138C86.4575 42.3001 86.7709 42.2433 87.1181 42.2433ZM87.1181 46.3634C87.5605 46.3634 87.8908 46.2144 88.1089 45.9164C88.3271 45.6183 88.4361 45.1989 88.4361 44.6582C88.4361 44.1174 88.3271 43.6981 88.1089 43.4C87.8908 43.0989 87.5605 42.9484 87.1181 42.9484C86.6695 42.9484 86.3346 43.0989 86.1134 43.4C85.8952 43.6981 85.7862 44.1174 85.7862 44.6582C85.7862 45.1989 85.8952 45.6183 86.1134 45.9164C86.3346 46.2144 86.6695 46.3634 87.1181 46.3634ZM95.2218 42.317L93.323 46.9994H92.5119L90.6131 42.317H91.3551C91.4258 42.317 91.4842 42.3339 91.5303 42.3677C91.5763 42.4015 91.6071 42.4445 91.6224 42.4967L92.7423 45.3725C92.7823 45.4924 92.8161 45.6122 92.8437 45.732C92.8744 45.8488 92.9021 45.9655 92.9267 46.0823C92.9513 45.9655 92.9789 45.8488 93.0096 45.732C93.0404 45.6153 93.0772 45.4954 93.1202 45.3725L94.254 42.4967C94.2724 42.4445 94.3047 42.4015 94.3507 42.3677C94.3968 42.3339 94.4521 42.317 94.5167 42.317H95.2218ZM97.7985 42.317V46.9994H96.8998V42.317H97.7985ZM97.969 40.8699C97.969 40.9528 97.9521 41.0327 97.9183 41.1095C97.8845 41.1833 97.8385 41.2493 97.7801 41.3077C97.7248 41.363 97.6587 41.4076 97.5819 41.4414C97.5051 41.4721 97.4252 41.4874 97.3423 41.4874C97.2593 41.4874 97.181 41.4721 97.1072 41.4414C97.0335 41.4076 96.9674 41.363 96.9091 41.3077C96.8537 41.2493 96.8092 41.1833 96.7754 41.1095C96.7447 41.0327 96.7293 40.9528 96.7293 40.8699C96.7293 40.7839 96.7447 40.704 96.7754 40.6302C96.8092 40.5534 96.8537 40.4874 96.9091 40.4321C96.9674 40.3737 97.0335 40.3291 97.1072 40.2984C97.181 40.2646 97.2593 40.2477 97.3423 40.2477C97.4252 40.2477 97.5051 40.2646 97.5819 40.2984C97.6587 40.3291 97.7248 40.3737 97.7801 40.4321C97.8385 40.4874 97.8845 40.5534 97.9183 40.6302C97.9521 40.704 97.969 40.7839 97.969 40.8699ZM103.04 43.4507C102.893 43.2572 102.733 43.122 102.561 43.0452C102.392 42.9684 102.201 42.93 101.989 42.93C101.578 42.93 101.258 43.079 101.031 43.377C100.806 43.6719 100.694 44.1036 100.694 44.672C100.694 44.97 100.719 45.2251 100.768 45.4371C100.82 45.646 100.894 45.818 100.989 45.9532C101.088 46.0853 101.207 46.1837 101.349 46.2482C101.49 46.3096 101.65 46.3404 101.828 46.3404C102.089 46.3404 102.315 46.282 102.505 46.1652C102.696 46.0485 102.874 45.8841 103.04 45.6721V43.4507ZM103.943 40.197V46.9994H103.4C103.274 46.9994 103.195 46.9395 103.165 46.8197L103.086 46.2804C102.886 46.517 102.659 46.7075 102.404 46.8519C102.152 46.9932 101.86 47.0639 101.528 47.0639C101.261 47.0639 101.018 47.0117 100.8 46.9072C100.585 46.8028 100.401 46.6507 100.247 46.451C100.094 46.2482 99.9753 45.9978 99.8924 45.6998C99.8094 45.4017 99.7679 45.0591 99.7679 44.672C99.7679 44.3248 99.814 44.0022 99.9062 43.7042C99.9984 43.4062 100.132 43.1481 100.307 42.93C100.482 42.7118 100.694 42.5413 100.943 42.4184C101.192 42.2924 101.473 42.2294 101.787 42.2294C102.069 42.2294 102.309 42.2755 102.505 42.3677C102.705 42.4599 102.883 42.5904 103.04 42.7594V40.197H103.943ZM109.22 44.1374C109.22 43.9592 109.194 43.7948 109.142 43.6443C109.093 43.4937 109.019 43.3632 108.921 43.2526C108.823 43.142 108.703 43.0559 108.561 42.9945C108.42 42.933 108.257 42.9023 108.073 42.9023C107.695 42.9023 107.397 43.0114 107.179 43.2295C106.964 43.4477 106.827 43.7503 106.769 44.1374H109.22ZM109.962 46.3311C109.852 46.4602 109.724 46.5723 109.58 46.6676C109.436 46.7597 109.282 46.835 109.119 46.8934C108.956 46.9518 108.787 46.9948 108.612 47.0224C108.44 47.0501 108.27 47.0639 108.101 47.0639C107.778 47.0639 107.478 47.0101 107.202 46.9026C106.928 46.792 106.69 46.6322 106.488 46.4233C106.288 46.2113 106.131 45.9502 106.017 45.6398C105.907 45.3265 105.852 44.967 105.852 44.5614C105.852 44.2357 105.902 43.9331 106.004 43.6535C106.105 43.3708 106.249 43.1251 106.437 42.9161C106.627 42.7072 106.859 42.5428 107.133 42.423C107.406 42.3032 107.713 42.2433 108.054 42.2433C108.34 42.2433 108.603 42.2909 108.843 42.3861C109.085 42.4783 109.294 42.6135 109.469 42.7917C109.644 42.9699 109.781 43.1896 109.88 43.4507C109.981 43.7119 110.032 44.0099 110.032 44.3448C110.032 44.4831 110.016 44.5768 109.986 44.6259C109.955 44.672 109.898 44.6951 109.815 44.6951H106.746C106.755 44.9747 106.795 45.2189 106.865 45.4278C106.936 45.6337 107.033 45.8057 107.156 45.944C107.282 46.0823 107.431 46.1852 107.603 46.2528C107.775 46.3204 107.967 46.3542 108.179 46.3542C108.379 46.3542 108.551 46.3311 108.695 46.285C108.843 46.239 108.969 46.1898 109.073 46.1376C109.181 46.0823 109.27 46.0316 109.34 45.9855C109.414 45.9394 109.479 45.9164 109.534 45.9164C109.608 45.9164 109.664 45.944 109.704 45.9993L109.962 46.3311ZM114.938 43.4507C114.79 43.2572 114.631 43.122 114.459 43.0452C114.29 42.9684 114.099 42.93 113.887 42.93C113.475 42.93 113.156 43.079 112.929 43.377C112.704 43.6719 112.592 44.1036 112.592 44.672C112.592 44.97 112.617 45.2251 112.666 45.4371C112.718 45.646 112.792 45.818 112.887 45.9532C112.985 46.0853 113.105 46.1837 113.247 46.2482C113.388 46.3096 113.548 46.3404 113.726 46.3404C113.987 46.3404 114.213 46.282 114.403 46.1652C114.594 46.0485 114.772 45.8841 114.938 45.6721V43.4507ZM115.841 40.197V46.9994H115.297C115.171 46.9994 115.093 46.9395 115.062 46.8197L114.984 46.2804C114.784 46.517 114.557 46.7075 114.302 46.8519C114.05 46.9932 113.758 47.0639 113.426 47.0639C113.159 47.0639 112.916 47.0117 112.698 46.9072C112.483 46.8028 112.299 46.6507 112.145 46.451C111.991 46.2482 111.873 45.9978 111.79 45.6998C111.707 45.4017 111.666 45.0591 111.666 44.672C111.666 44.3248 111.712 44.0022 111.804 43.7042C111.896 43.4062 112.03 43.1481 112.205 42.93C112.38 42.7118 112.592 42.5413 112.841 42.4184C113.09 42.2924 113.371 42.2294 113.684 42.2294C113.967 42.2294 114.207 42.2755 114.403 42.3677C114.603 42.4599 114.781 42.5904 114.938 42.7594V40.197H115.841ZM122.168 45.8472C122.316 46.0408 122.476 46.176 122.648 46.2528C122.82 46.3296 123.007 46.368 123.21 46.368C123.628 46.368 123.949 46.219 124.173 45.921C124.401 45.6229 124.514 45.1728 124.514 44.5706C124.514 44.0145 124.414 43.6074 124.215 43.3493C124.015 43.0882 123.732 42.9576 123.367 42.9576C123.109 42.9576 122.884 43.016 122.694 43.1327C122.506 43.2495 122.331 43.4154 122.168 43.6305V45.8472ZM122.168 42.9622C122.362 42.7471 122.582 42.5736 122.828 42.4414C123.073 42.3093 123.353 42.2433 123.666 42.2433C123.94 42.2433 124.186 42.297 124.404 42.4046C124.625 42.509 124.812 42.6611 124.966 42.8608C125.12 43.0575 125.238 43.2971 125.321 43.5798C125.404 43.8624 125.445 44.182 125.445 44.5384C125.445 44.9163 125.398 45.2604 125.302 45.5707C125.21 45.881 125.077 46.1468 124.901 46.368C124.729 46.5892 124.519 46.7613 124.27 46.8842C124.021 47.004 123.742 47.0639 123.431 47.0639C123.281 47.0639 123.142 47.0485 123.016 47.0178C122.891 46.9902 122.774 46.9487 122.666 46.8934C122.562 46.8381 122.465 46.7705 122.376 46.6906C122.287 46.6107 122.202 46.5201 122.122 46.4187L122.081 46.8104C122.056 46.9364 121.98 46.9994 121.85 46.9994H121.27V40.197H122.168V42.9622ZM131.334 42.317L128.734 48.3589C128.707 48.4265 128.67 48.4788 128.624 48.5156C128.578 48.5525 128.51 48.5709 128.421 48.5709H127.753L128.61 46.7044L126.688 42.317H127.472C127.548 42.317 127.608 42.3354 127.651 42.3723C127.694 42.4092 127.725 42.4507 127.744 42.4967L128.933 45.308C128.957 45.3787 128.98 45.4509 129.002 45.5246C129.026 45.5953 129.046 45.666 129.062 45.7366C129.083 45.6629 129.106 45.5907 129.131 45.52C129.155 45.4463 129.181 45.3741 129.209 45.3034L130.357 42.4967C130.378 42.4445 130.412 42.4015 130.458 42.3677C130.504 42.3339 130.556 42.317 130.615 42.317H131.334ZM139.865 42.317V46.9994H139.326C139.203 46.9994 139.123 46.9395 139.086 46.8197L139.022 46.3496C138.92 46.4571 138.814 46.5554 138.704 46.6445C138.593 46.7336 138.475 46.8104 138.349 46.875C138.223 46.9364 138.089 46.984 137.948 47.0178C137.806 47.0547 137.654 47.0731 137.492 47.0731C137.233 47.0731 137.006 47.0301 136.809 46.9441C136.616 46.8581 136.453 46.7382 136.321 46.5846C136.189 46.4279 136.089 46.2405 136.021 46.0224C135.954 45.8042 135.92 45.563 135.92 45.2988V42.317H136.823V45.2988C136.823 45.6337 136.9 45.8949 137.054 46.0823C137.207 46.2666 137.442 46.3588 137.759 46.3588C137.989 46.3588 138.204 46.305 138.404 46.1975C138.604 46.0869 138.791 45.9363 138.966 45.7458V42.317H139.865ZM142.94 45.8472C143.087 46.0408 143.246 46.176 143.414 46.2528C143.587 46.3296 143.779 46.368 143.991 46.368C144.402 46.368 144.72 46.2205 144.945 45.9256C145.172 45.6275 145.286 45.1943 145.286 44.6259C145.286 44.3279 145.259 44.0744 145.207 43.8655C145.158 43.6535 145.084 43.4815 144.986 43.3493C144.891 43.2142 144.773 43.1158 144.631 43.0544C144.49 42.9899 144.33 42.9576 144.152 42.9576C143.891 42.9576 143.663 43.016 143.47 43.1327C143.279 43.2495 143.103 43.4154 142.94 43.6305V45.8472ZM142.894 43.0175C142.992 42.9008 143.097 42.7948 143.207 42.6995C143.321 42.6012 143.442 42.5182 143.571 42.4507C143.7 42.38 143.837 42.3262 143.981 42.2894C144.129 42.2494 144.286 42.2294 144.451 42.2294C144.719 42.2294 144.96 42.2817 145.175 42.3861C145.393 42.4906 145.579 42.6442 145.733 42.847C145.886 43.0498 146.005 43.3002 146.088 43.5982C146.174 43.8962 146.217 44.2388 146.217 44.6259C146.217 44.9731 146.169 45.2957 146.074 45.5938C145.982 45.8887 145.848 46.1453 145.673 46.3634C145.501 46.5815 145.289 46.7536 145.037 46.8796C144.788 47.0025 144.507 47.0639 144.193 47.0639C143.914 47.0639 143.674 47.0178 143.474 46.9257C143.275 46.8335 143.097 46.7044 142.94 46.5385V48.5709H142.041V42.317H142.58C142.706 42.317 142.785 42.3769 142.815 42.4967L142.894 43.0175ZM150.862 44.5845V42.0036C150.862 41.9145 150.864 41.8208 150.867 41.7225C150.873 41.6211 150.884 41.5166 150.899 41.4091L148.581 44.5845H150.862ZM152.609 44.5845V45.1052C152.609 45.1575 152.592 45.202 152.558 45.2389C152.524 45.2758 152.477 45.2942 152.415 45.2942H151.65V46.9994H150.862V45.2942H147.959C147.891 45.2942 147.834 45.2758 147.788 45.2389C147.742 45.1989 147.711 45.1498 147.696 45.0914L147.604 44.6305L150.802 40.3768H151.65V44.5845H152.609ZM157.435 43.4507C157.287 43.2572 157.127 43.122 156.955 43.0452C156.786 42.9684 156.596 42.93 156.384 42.93C155.972 42.93 155.653 43.079 155.425 43.377C155.201 43.6719 155.089 44.1036 155.089 44.672C155.089 44.97 155.114 45.2251 155.163 45.4371C155.215 45.646 155.289 45.818 155.384 45.9532C155.482 46.0853 155.602 46.1837 155.743 46.2482C155.885 46.3096 156.044 46.3404 156.223 46.3404C156.484 46.3404 156.71 46.282 156.9 46.1652C157.091 46.0485 157.269 45.8841 157.435 45.6721V43.4507ZM158.338 40.197V46.9994H157.794C157.668 46.9994 157.59 46.9395 157.559 46.8197L157.481 46.2804C157.281 46.517 157.054 46.7075 156.799 46.8519C156.547 46.9932 156.255 47.0639 155.923 47.0639C155.656 47.0639 155.413 47.0117 155.195 46.9072C154.98 46.8028 154.796 46.6507 154.642 46.451C154.488 46.2482 154.37 45.9978 154.287 45.6998C154.204 45.4017 154.163 45.0591 154.163 44.672C154.163 44.3248 154.209 44.0022 154.301 43.7042C154.393 43.4062 154.527 43.1481 154.702 42.93C154.877 42.7118 155.089 42.5413 155.338 42.4184C155.587 42.2924 155.868 42.2294 156.181 42.2294C156.464 42.2294 156.703 42.2755 156.9 42.3677C157.1 42.4599 157.278 42.5904 157.435 42.7594V40.197H158.338ZM169.352 43.7779V46.3588C169.017 46.5984 168.661 46.7782 168.283 46.898C167.905 47.0148 167.493 47.0731 167.048 47.0731C166.513 47.0731 166.029 46.9902 165.596 46.8243C165.166 46.6583 164.799 46.4264 164.495 46.1284C164.191 45.8303 163.956 45.4739 163.79 45.0591C163.627 44.6444 163.545 44.1881 163.545 43.6904C163.545 43.1896 163.624 42.7318 163.78 42.317C163.94 41.8992 164.168 41.5427 164.462 41.2478C164.757 40.9498 165.114 40.7193 165.532 40.5565C165.953 40.3906 166.424 40.3076 166.947 40.3076C167.211 40.3076 167.455 40.3276 167.679 40.3675C167.907 40.4075 168.117 40.4643 168.311 40.5381C168.504 40.6118 168.682 40.7009 168.845 40.8054C169.011 40.9068 169.165 41.022 169.306 41.151L169.025 41.5934C168.982 41.6641 168.925 41.7087 168.855 41.7271C168.784 41.7455 168.707 41.7286 168.624 41.6764C168.544 41.6303 168.455 41.5765 168.357 41.5151C168.262 41.4536 168.146 41.3968 168.011 41.3446C167.879 41.2923 167.724 41.2478 167.546 41.2109C167.367 41.1741 167.157 41.1556 166.914 41.1556C166.552 41.1556 166.225 41.2155 165.933 41.3354C165.641 41.4521 165.392 41.6211 165.186 41.8423C164.98 42.0635 164.822 42.3308 164.711 42.6442C164.601 42.9545 164.545 43.3033 164.545 43.6904C164.545 44.0959 164.604 44.46 164.721 44.7826C164.837 45.1022 165.002 45.3741 165.214 45.5984C165.429 45.8196 165.688 45.9886 165.993 46.1053C166.3 46.2221 166.642 46.2804 167.02 46.2804C167.168 46.2804 167.304 46.2728 167.43 46.2574C167.559 46.239 167.682 46.2144 167.799 46.1837C167.916 46.1529 168.028 46.1145 168.136 46.0684C168.246 46.0224 168.355 45.9717 168.463 45.9164V44.5292H167.486C167.424 44.5292 167.374 44.5107 167.334 44.4738C167.297 44.437 167.278 44.3909 167.278 44.3356V43.7779H169.352ZM172.188 43.2157C172.339 42.9084 172.52 42.6673 172.732 42.4921C172.944 42.317 173.199 42.2294 173.497 42.2294C173.598 42.2294 173.694 42.2417 173.783 42.2663C173.875 42.2878 173.955 42.3216 174.022 42.3677L173.963 43.0452C173.941 43.1281 173.89 43.1696 173.81 43.1696C173.767 43.1696 173.703 43.1619 173.617 43.1466C173.531 43.1281 173.439 43.1189 173.34 43.1189C173.196 43.1189 173.068 43.1404 172.958 43.1834C172.847 43.2234 172.747 43.2848 172.658 43.3678C172.572 43.4477 172.495 43.5475 172.428 43.6673C172.36 43.7841 172.297 43.9177 172.239 44.0683V46.9994H171.34V42.317H171.856C171.955 42.317 172.021 42.3354 172.055 42.3723C172.091 42.4061 172.118 42.4676 172.133 42.5567L172.188 43.2157ZM177.462 42.2433C177.806 42.2433 178.116 42.3001 178.393 42.4138C178.673 42.5244 178.909 42.6857 179.103 42.8977C179.299 43.1066 179.45 43.3601 179.554 43.6581C179.659 43.9531 179.711 44.2849 179.711 44.6536C179.711 45.0223 179.659 45.3556 179.554 45.6537C179.45 45.9517 179.299 46.2052 179.103 46.4141C178.909 46.623 178.673 46.7843 178.393 46.898C178.116 47.0086 177.806 47.0639 177.462 47.0639C177.115 47.0639 176.801 47.0086 176.522 46.898C176.245 46.7843 176.009 46.623 175.812 46.4141C175.615 46.2052 175.463 45.9517 175.356 45.6537C175.251 45.3556 175.199 45.0223 175.199 44.6536C175.199 44.2849 175.251 43.9531 175.356 43.6581C175.463 43.3601 175.615 43.1066 175.812 42.8977C176.009 42.6857 176.245 42.5244 176.522 42.4138C176.801 42.3001 177.115 42.2433 177.462 42.2433ZM177.462 46.3634C177.904 46.3634 178.235 46.2144 178.453 45.9164C178.671 45.6183 178.78 45.1989 178.78 44.6582C178.78 44.1174 178.671 43.6981 178.453 43.4C178.235 43.0989 177.904 42.9484 177.462 42.9484C177.013 42.9484 176.678 43.0989 176.457 43.4C176.239 43.6981 176.13 44.1174 176.13 44.6582C176.13 45.1989 176.239 45.6183 176.457 45.9164C176.678 46.2144 177.013 46.3634 177.462 46.3634ZM185.53 42.317V46.9994H184.991C184.868 46.9994 184.788 46.9395 184.751 46.8197L184.687 46.3496C184.585 46.4571 184.479 46.5554 184.369 46.6445C184.258 46.7336 184.14 46.8104 184.014 46.875C183.888 46.9364 183.754 46.984 183.613 47.0178C183.472 47.0547 183.32 47.0731 183.157 47.0731C182.899 47.0731 182.671 47.0301 182.475 46.9441C182.281 46.8581 182.118 46.7382 181.986 46.5846C181.854 46.4279 181.754 46.2405 181.687 46.0224C181.619 45.8042 181.585 45.563 181.585 45.2988V42.317H182.488V45.2988C182.488 45.6337 182.565 45.8949 182.719 46.0823C182.873 46.2666 183.108 46.3588 183.424 46.3588C183.654 46.3588 183.87 46.305 184.069 46.1975C184.269 46.0869 184.456 45.9363 184.632 45.7458V42.317H185.53ZM188.605 45.8472C188.753 46.0408 188.911 46.176 189.08 46.2528C189.252 46.3296 189.444 46.368 189.656 46.368C190.068 46.368 190.386 46.2205 190.61 45.9256C190.837 45.6275 190.951 45.1943 190.951 44.6259C190.951 44.3279 190.925 44.0744 190.872 43.8655C190.823 43.6535 190.75 43.4815 190.651 43.3493C190.556 43.2142 190.438 43.1158 190.296 43.0544C190.155 42.9899 189.995 42.9576 189.817 42.9576C189.556 42.9576 189.329 43.016 189.135 43.1327C188.945 43.2495 188.768 43.4154 188.605 43.6305V45.8472ZM188.559 43.0175C188.657 42.9008 188.762 42.7948 188.872 42.6995C188.986 42.6012 189.107 42.5182 189.236 42.4507C189.365 42.38 189.502 42.3262 189.647 42.2894C189.794 42.2494 189.951 42.2294 190.117 42.2294C190.384 42.2294 190.625 42.2817 190.84 42.3861C191.058 42.4906 191.244 42.6442 191.398 42.847C191.551 43.0498 191.67 43.3002 191.753 43.5982C191.839 43.8962 191.882 44.2388 191.882 44.6259C191.882 44.9731 191.834 45.2957 191.739 45.5938C191.647 45.8887 191.513 46.1453 191.338 46.3634C191.166 46.5815 190.954 46.7536 190.702 46.8796C190.453 47.0025 190.172 47.0639 189.859 47.0639C189.579 47.0639 189.339 47.0178 189.14 46.9257C188.94 46.8335 188.762 46.7044 188.605 46.5385V48.5709H187.706V42.317H188.246C188.372 42.317 188.45 42.3769 188.481 42.4967L188.559 43.0175Z" fill="#606060"/>
<rect x="44.5977" y="29.7435" width="10.8631" height="3.31928" fill="#606060"/>
<path d="M64.2013 26.791C64.842 26.791 65.4004 26.7131 65.8766 26.5572C66.3527 26.3927 66.7467 26.1633 67.0583 25.8689C67.3787 25.5659 67.6168 25.2023 67.7726 24.7781C67.9284 24.3452 68.0064 23.8647 68.0064 23.3366C68.0064 22.8344 67.9284 22.3799 67.7726 21.973C67.6168 21.5661 67.383 21.2198 67.0713 20.9341C66.7597 20.6484 66.3657 20.4319 65.8896 20.2847C65.4134 20.1289 64.8506 20.051 64.2013 20.051H61.591V26.791H64.2013ZM64.2013 17.3498C65.4567 17.3498 66.5432 17.497 67.4609 17.7913C68.3786 18.0857 69.1362 18.4969 69.7336 19.0251C70.3309 19.5532 70.7725 20.1852 71.0582 20.9211C71.3526 21.657 71.4997 22.4622 71.4997 23.3366C71.4997 24.2456 71.3482 25.0811 71.0452 25.843C70.7422 26.5962 70.2877 27.2455 69.6816 27.791C69.0756 28.3364 68.3137 28.7606 67.396 29.0636C66.4869 29.3667 65.422 29.5182 64.2013 29.5182H61.591V36.1283H58.0976V17.3498H64.2013ZM85.1782 33.2453V36.1283H74.1786V17.3498H77.672V33.2453H85.1782ZM97.5941 29.0377L95.3085 22.7911C95.1959 22.5141 95.079 22.1851 94.9578 21.8042C94.8366 21.4232 94.7154 21.012 94.5942 20.5705C94.4817 21.012 94.3648 21.4276 94.2436 21.8172C94.1224 22.1981 94.0055 22.5314 93.8929 22.8171L91.6203 29.0377H97.5941ZM103.763 36.1283H101.062C100.758 36.1283 100.512 36.0547 100.321 35.9075C100.131 35.7517 99.988 35.5612 99.8927 35.3361L98.4902 31.5051H90.7113L89.3087 35.3361C89.2394 35.5352 89.1053 35.7171 88.9061 35.8816C88.707 36.046 88.4603 36.1283 88.1659 36.1283H85.4387L92.8281 17.3498H96.3864L103.763 36.1283ZM118.823 20.2198H113.161V36.1283H109.667V20.2198H104.005V17.3498H118.823V20.2198ZM124.786 20.1289V25.6871H131.825V28.4792H124.786V36.1283H121.28V17.3498H133.124V20.1289H124.786ZM153.722 26.739C153.722 28.1156 153.493 29.3926 153.034 30.5701C152.584 31.7389 151.943 32.7518 151.112 33.6089C150.281 34.466 149.281 35.137 148.112 35.6218C146.943 36.098 145.645 36.3361 144.216 36.3361C142.796 36.3361 141.502 36.098 140.333 35.6218C139.164 35.137 138.16 34.466 137.32 33.6089C136.489 32.7518 135.844 31.7389 135.385 30.5701C134.926 29.3926 134.697 28.1156 134.697 26.739C134.697 25.3625 134.926 24.0898 135.385 22.921C135.844 21.7436 136.489 20.7263 137.32 19.8692C138.16 19.0121 139.164 18.3454 140.333 17.8693C141.502 17.3844 142.796 17.142 144.216 17.142C145.168 17.142 146.065 17.2546 146.904 17.4797C147.744 17.6961 148.515 18.0078 149.216 18.4147C149.917 18.8129 150.545 19.3021 151.099 19.8822C151.662 20.4536 152.138 21.0942 152.527 21.8042C152.917 22.5141 153.211 23.2846 153.411 24.1158C153.618 24.9469 153.722 25.8213 153.722 26.739ZM150.151 26.739C150.151 25.7088 150.012 24.7867 149.735 23.9729C149.458 23.1504 149.064 22.4535 148.554 21.8821C148.043 21.3107 147.419 20.8735 146.684 20.5705C145.956 20.2674 145.134 20.1159 144.216 20.1159C143.298 20.1159 142.472 20.2674 141.736 20.5705C141.008 20.8735 140.385 21.3107 139.866 21.8821C139.355 22.4535 138.961 23.1504 138.684 23.9729C138.407 24.7867 138.268 25.7088 138.268 26.739C138.268 27.7693 138.407 28.6957 138.684 29.5182C138.961 30.332 139.355 31.0246 139.866 31.596C140.385 32.1588 141.008 32.5916 141.736 32.8947C142.472 33.1977 143.298 33.3492 144.216 33.3492C145.134 33.3492 145.956 33.1977 146.684 32.8947C147.419 32.5916 148.043 32.1588 148.554 31.596C149.064 31.0246 149.458 30.332 149.735 29.5182C150.012 28.6957 150.151 27.7693 150.151 26.739ZM162.465 26.2845C163.123 26.2845 163.695 26.2023 164.179 26.0378C164.673 25.8733 165.075 25.6482 165.387 25.3625C165.707 25.0681 165.946 24.7218 166.101 24.3236C166.257 23.9253 166.335 23.4881 166.335 23.0119C166.335 22.0596 166.019 21.328 165.387 20.8172C164.764 20.3064 163.807 20.051 162.517 20.051H160.283V26.2845H162.465ZM171.452 36.1283H168.296C167.699 36.1283 167.266 35.8945 166.997 35.427L163.05 29.4143C162.902 29.1892 162.738 29.029 162.556 28.9338C162.383 28.8385 162.123 28.7909 161.777 28.7909H160.283V36.1283H156.79V17.3498H162.517C163.79 17.3498 164.881 17.484 165.79 17.7524C166.707 18.0121 167.456 18.3801 168.036 18.8562C168.625 19.3324 169.058 19.9038 169.335 20.5705C169.612 21.2284 169.751 21.9557 169.751 22.7522C169.751 23.3842 169.655 23.9816 169.465 24.5443C169.283 25.1071 169.015 25.6179 168.66 26.0767C168.313 26.5356 167.881 26.9382 167.361 27.2845C166.85 27.6308 166.266 27.9035 165.608 28.1026C165.833 28.2325 166.041 28.3883 166.231 28.5701C166.422 28.7433 166.595 28.9511 166.751 29.1935L171.452 36.1283ZM193.843 17.3498V36.1283H190.765V23.9989C190.765 23.5141 190.791 22.9903 190.843 22.4275L185.168 33.0895C184.899 33.6003 184.488 33.8557 183.934 33.8557H183.44C182.886 33.8557 182.475 33.6003 182.207 33.0895L176.467 22.3886C176.493 22.6743 176.514 22.9556 176.532 23.2327C176.549 23.5097 176.558 23.7651 176.558 23.9989V36.1283H173.48V17.3498H176.116C176.272 17.3498 176.406 17.3541 176.519 17.3628C176.631 17.3714 176.731 17.3931 176.817 17.4277C176.913 17.4623 176.995 17.5186 177.064 17.5965C177.142 17.6745 177.216 17.7784 177.285 17.9082L182.908 28.3364C183.055 28.6134 183.189 28.8991 183.311 29.1935C183.44 29.4879 183.566 29.7909 183.687 30.1026C183.808 29.7822 183.934 29.4749 184.064 29.1805C184.194 28.8775 184.332 28.5875 184.479 28.3104L190.025 17.9082C190.094 17.7784 190.167 17.6745 190.245 17.5965C190.323 17.5186 190.406 17.4623 190.492 17.4277C190.587 17.3931 190.691 17.3714 190.804 17.3628C190.916 17.3541 191.051 17.3498 191.206 17.3498H193.843ZM208.032 20.7652C207.928 20.9471 207.816 21.0813 207.694 21.1678C207.582 21.2458 207.439 21.2847 207.266 21.2847C207.084 21.2847 206.885 21.2198 206.668 21.0899C206.461 20.9514 206.21 20.7999 205.915 20.6354C205.621 20.4709 205.275 20.3237 204.876 20.1938C204.487 20.0553 204.024 19.9861 203.487 19.9861C203.002 19.9861 202.578 20.0467 202.214 20.1679C201.85 20.2804 201.543 20.4406 201.292 20.6484C201.05 20.8562 200.868 21.1072 200.747 21.4016C200.625 21.6873 200.565 22.0033 200.565 22.3496C200.565 22.7911 200.686 23.1591 200.928 23.4535C201.179 23.7478 201.508 23.9989 201.915 24.2067C202.322 24.4145 202.785 24.6006 203.305 24.7651C203.824 24.9296 204.357 25.1071 204.902 25.2975C205.448 25.4794 205.98 25.6958 206.5 25.9469C207.019 26.1893 207.482 26.501 207.889 26.8819C208.296 27.2542 208.621 27.713 208.863 28.2585C209.114 28.8039 209.24 29.4662 209.24 30.2454C209.24 31.0939 209.093 31.8904 208.798 32.6349C208.513 33.3708 208.088 34.0158 207.526 34.5699C206.971 35.1153 206.292 35.5482 205.487 35.8686C204.681 36.1802 203.759 36.3361 202.721 36.3361C202.123 36.3361 201.534 36.2755 200.954 36.1543C200.374 36.0417 199.816 35.8772 199.279 35.6608C198.751 35.4443 198.253 35.1846 197.786 34.8816C197.318 34.5786 196.903 34.2409 196.539 33.8686L197.565 32.1934C197.651 32.0722 197.764 31.9726 197.903 31.8947C198.041 31.8081 198.188 31.7648 198.344 31.7648C198.561 31.7648 198.794 31.8557 199.045 32.0375C199.296 32.2107 199.595 32.4055 199.941 32.6219C200.288 32.8384 200.69 33.0375 201.149 33.2193C201.617 33.3925 202.175 33.479 202.824 33.479C203.82 33.479 204.591 33.2453 205.136 32.7778C205.681 32.3016 205.954 31.622 205.954 30.7389C205.954 30.2454 205.829 29.8428 205.578 29.5311C205.335 29.2195 205.01 28.9597 204.604 28.752C204.197 28.5355 203.733 28.3537 203.214 28.2065C202.695 28.0593 202.166 27.8992 201.63 27.726C201.093 27.5529 200.565 27.3451 200.045 27.1027C199.526 26.8603 199.063 26.5442 198.656 26.1547C198.249 25.7651 197.92 25.2802 197.669 24.7002C197.426 24.1114 197.305 23.3885 197.305 22.5314C197.305 21.8475 197.439 21.1808 197.708 20.5315C197.985 19.8822 198.383 19.3064 198.902 18.8043C199.422 18.3021 200.063 17.8996 200.825 17.5965C201.586 17.2935 202.461 17.142 203.448 17.142C204.556 17.142 205.578 17.3152 206.513 17.6615C207.448 18.0078 208.244 18.4926 208.902 19.116L208.032 20.7652Z" fill="#606060"/>
<path d="M12.1868 15.8169C12.9557 15.1377 13.8066 14.4826 14.6957 13.883L15.348 16.0846C14.783 16.4786 14.2398 16.9054 13.7215 17.3632C13.2327 17.795 12.7686 18.252 12.3311 18.7321L10.2546 17.7722C10.8515 17.0798 11.4968 16.4264 12.1868 15.8169Z" fill="#D9D9D9" stroke="#F05B28" stroke-width="10.5833"/>
<path d="M15.2762 44.7889L14.7002 46.7914C13.6919 46.0923 12.7496 45.3046 11.8848 44.4384L13.7304 43.4142C14.2086 43.8989 14.7222 44.3589 15.2762 44.7889Z" fill="#D9D9D9" stroke="#42A245" stroke-width="10.5833"/>
<mask id="path-6-inside-1_1393_1267" fill="white">
<path fill-rule="evenodd" clip-rule="evenodd" d="M34.3814 6.3895C39.2253 8.06312 43.448 11.1659 46.4925 15.2886L36.2662 22.8403C34.7488 20.7855 32.6442 19.2391 30.2299 18.4049C27.8157 17.5708 25.2053 17.4881 22.7431 18.1679L21.7778 14.6718C22.1961 14.8467 22.6556 14.9434 23.1379 14.9434C25.0768 14.9434 26.6485 13.3806 26.6485 11.4528C26.6485 9.52506 25.0768 7.9623 23.1379 7.9623C21.9813 7.9623 20.9554 8.51836 20.3158 9.37627L19.3599 5.91403C24.2999 4.5501 29.5374 4.71589 34.3814 6.3895Z"/>
</mask>
<path fill-rule="evenodd" clip-rule="evenodd" d="M34.3814 6.3895C39.2253 8.06312 43.448 11.1659 46.4925 15.2886L36.2662 22.8403C34.7488 20.7855 32.6442 19.2391 30.2299 18.4049C27.8157 17.5708 25.2053 17.4881 22.7431 18.1679L21.7778 14.6718C22.1961 14.8467 22.6556 14.9434 23.1379 14.9434C25.0768 14.9434 26.6485 13.3806 26.6485 11.4528C26.6485 9.52506 25.0768 7.9623 23.1379 7.9623C21.9813 7.9623 20.9554 8.51836 20.3158 9.37627L19.3599 5.91403C24.2999 4.5501 29.5374 4.71589 34.3814 6.3895Z" fill="#D9D9D9"/>
<path d="M46.4925 15.2886L52.7794 23.8021L61.2929 17.5151L55.006 9.00164L46.4925 15.2886ZM34.3814 6.3895L30.9252 16.3925L34.3814 6.3895ZM36.2662 22.8403L27.7527 29.1272L34.0396 37.6407L42.5531 31.3538L36.2662 22.8403ZM22.7431 18.1679L12.5415 20.9845L15.3581 31.1861L25.5597 28.3695L22.7431 18.1679ZM21.7778 14.6718L25.861 4.9079L5.78488 -3.48772L11.5763 17.4884L21.7778 14.6718ZM20.3158 9.37627L10.1142 12.1929L15.8711 33.044L28.8005 15.702L20.3158 9.37627ZM19.3599 5.91403L16.5433 -4.28754L6.3417 -1.47095L9.15829 8.73062L19.3599 5.91403ZM55.006 9.00164C50.6902 3.15746 44.7042 -1.24102 37.8375 -3.61352L30.9252 16.3925C33.7464 17.3673 36.2058 19.1744 37.979 21.5755L55.006 9.00164ZM42.5531 31.3538L52.7794 23.8021L40.2055 6.77506L29.9793 14.3268L42.5531 31.3538ZM26.7738 28.4079C27.1653 28.5432 27.5066 28.794 27.7527 29.1272L44.7797 16.5534C41.9911 12.7771 38.1231 9.93492 33.6861 8.4019L26.7738 28.4079ZM25.5597 28.3695C25.959 28.2593 26.3823 28.2727 26.7738 28.4079L33.6861 8.4019C29.2491 6.86888 24.4516 6.71703 19.9265 7.96637L25.5597 28.3695ZM11.5763 17.4884L12.5415 20.9845L32.9447 15.3513L31.9794 11.8552L11.5763 17.4884ZM23.1379 4.36011C24.0812 4.36011 25.0079 4.55117 25.861 4.9079L17.6947 24.4356C19.3843 25.1422 21.2301 25.5266 23.1379 25.5266V4.36011ZM16.0653 11.4528C16.0653 7.47838 19.2892 4.36011 23.1379 4.36011V25.5266C30.8643 25.5266 37.2318 19.2828 37.2318 11.4528H16.0653ZM23.1379 18.5455C19.2892 18.5455 16.0653 15.4273 16.0653 11.4528H37.2318C37.2318 3.62285 30.8643 -2.62096 23.1379 -2.62096V18.5455ZM28.8005 15.702C27.5196 17.42 25.4499 18.5455 23.1379 18.5455V-2.62096C18.5127 -2.62096 14.3911 -0.38324 11.8311 3.0505L28.8005 15.702ZM9.15829 8.73062L10.1142 12.1929L30.5173 6.55968L29.5614 3.09744L9.15829 8.73062ZM37.8375 -3.61351C30.9708 -5.98601 23.5462 -6.22102 16.5433 -4.28754L22.1765 16.1156C25.0536 15.3212 28.1041 15.4178 30.9252 16.3925L37.8375 -3.61351Z" fill="#BF202E" mask="url(#path-6-inside-1_1393_1267)"/>
<path fill-rule="evenodd" clip-rule="evenodd" d="M22.5755 14.2464C24.1177 14.2464 25.3679 12.9961 25.3679 11.4539C25.3679 9.91171 24.1177 8.6615 22.5755 8.6615C21.2747 8.6615 20.1817 9.55094 19.8713 10.7548L19.26 10.7549L20.3072 14.42L20.9558 13.7793L20.9381 13.7161C21.3981 14.0497 21.9638 14.2464 22.5755 14.2464Z" fill="#F05B28"/>
<path fill-rule="evenodd" clip-rule="evenodd" d="M40.7153 21.7733C41.188 23.2413 42.7612 24.0482 44.2292 23.5756C45.6972 23.103 46.5041 21.5298 46.0315 20.0618C45.6328 18.8235 44.4511 18.0556 43.21 18.1292L43.0224 17.5465L39.8545 19.6664L40.6631 20.0876L40.7187 20.0507C40.5417 20.5912 40.5277 21.1905 40.7153 21.7733Z" fill="#BF202E"/>
<path fill-rule="evenodd" clip-rule="evenodd" d="M22.5755 46.3306C24.1177 46.3306 25.3679 47.5808 25.3679 49.123C25.3679 50.6652 24.1177 51.9154 22.5755 51.9154C21.2747 51.9154 20.1817 51.026 19.8713 49.8221L19.26 49.822L20.3072 46.1569L20.9558 46.7976L20.9381 46.8608C21.3981 46.5272 21.9638 46.3306 22.5755 46.3306Z" fill="#1272B9"/>
<mask id="mask0_1393_1267" style="mask-type:alpha" maskUnits="userSpaceOnUse" x="-6" y="19" width="24" height="24">
<path d="M13.8351 24.7176L7.51599 22.0997L-1.78722 19.4818L-6 38.1562L6.98939 42.5193L13.6596 39.7269L17.5213 35.5383L13.8351 24.7176Z" fill="#D9D9D9"/>
</mask>
<g mask="url(#mask0_1393_1267)">
<g clip-path="url(#clip1_1393_1267)">
<path d="M28.8789 6.01709C18.5498 6.01709 9.62145 12.114 5.49517 20.8962L9.00385 22.4536L7.03768 22.0165L6.99889 22.1373C6.99889 22.1373 6.99889 22.1403 6.9974 22.1418L6.98099 22.1836C6.84971 22.5103 5.97105 24.5496 4.13914 25.8414C4.13914 25.8414 5.11327 26.5784 5.28632 27.0871C5.28632 27.0871 5.44296 27.4899 5.28632 27.9553C5.28632 27.9553 4.82088 28.9727 3.91984 28.8802C3.91984 28.8802 4.31069 29.5649 4.08096 30.1602C3.9467 30.5033 3.64834 30.9389 2.892 30.9493C2.892 30.9493 3.31865 31.7594 2.70404 32.3233C2.36093 32.638 1.84328 32.7096 1.46138 32.6828C1.30176 32.6723 1.02578 32.5798 0.872123 32.4948C0.872123 32.4948 0.438013 32.7872 0.611061 33.3049C0.611061 33.3049 0.767698 33.6495 1.04965 33.7121C1.04965 33.7121 1.27043 33.7807 1.52105 33.5928L3.54093 32.2233L3.68265 32.1368C3.68265 32.1368 3.82437 32.092 3.86763 32.195C3.89001 32.2487 3.8915 32.3606 3.82437 32.4202C3.82437 32.4202 1.74183 33.8986 1.42856 34.1417C1.11528 34.3849 1.03473 34.6281 1.07202 34.9354C1.10932 35.2472 1.32115 35.6529 1.41663 35.7395C1.52702 35.8379 1.77316 35.9558 2.15804 35.8305C2.54442 35.7051 4.90741 33.9702 4.90741 33.9702C4.90741 33.9702 5.01034 33.8941 5.11327 33.9031C5.1819 33.909 5.33555 34.0806 5.20278 34.2059C5.07299 34.3267 4.97901 34.3924 4.82237 34.5087C4.66574 34.6236 2.24158 36.3063 2.24158 36.3063C2.24158 36.3063 1.89549 36.5018 2.08495 37.1596C2.23562 37.6818 2.45342 37.8235 2.58469 37.9055C2.71448 37.9861 2.98449 38.0234 3.23511 37.8921C3.53347 37.734 6.40218 35.6126 6.40218 35.6126C6.40218 35.6126 6.49318 35.5918 6.55583 35.6291C6.63191 35.6738 6.64385 35.826 6.51108 35.9602C6.34698 36.1288 6.17841 36.2586 6.17841 36.2586L3.54541 38.2024C3.54541 38.2024 3.2008 38.5112 3.44098 38.9334C3.44098 38.9334 3.76321 39.4063 4.10781 39.5629C4.45241 39.7195 4.76419 39.5226 4.94321 39.4391C5.12073 39.3555 7.89247 37.7608 7.89247 37.7608C7.89247 37.7608 8.29078 37.5505 8.45637 37.185C8.62345 36.8195 9.94666 34.7728 10.339 33.6748C10.339 33.6748 10.6538 32.5694 10.7269 31.2939C10.7269 31.2939 10.794 31.0403 10.6016 30.9076C10.6016 30.9076 9.69604 30.2273 9.19033 29.4814C8.91584 29.0756 8.59809 28.0195 8.97253 27.3616C9.29475 26.7962 9.6498 26.6023 9.6498 26.6023C9.6498 26.6023 9.83329 26.4919 10.0048 26.6023C10.1749 26.7097 12.2679 27.9359 12.9556 28.1298C12.9556 28.1298 12.5454 26.7992 12.4544 25.6938L13.1868 24.3124L14.7174 24.9926C17.2684 19.7371 22.6597 16.1031 28.8834 16.1031C33.5139 16.1031 37.6835 18.1155 40.5656 21.3094L48.2945 14.835C43.5536 9.43179 36.6079 6.01709 28.8789 6.01709Z" fill="#F05B28"/>
<path d="M4.4313 26.6784C4.4313 26.6784 3.76895 26.122 3.5422 25.943C3.12301 25.6148 2.31893 25.6715 2.00118 26.0966L1.92958 26.1936C1.61183 26.6203 1.69835 27.2259 2.12649 27.5392C2.39651 27.7361 2.90521 28.1807 3.20953 28.3164C3.578 28.4835 4.23886 28.5462 4.55661 28.1195L4.62822 28.0225C4.94597 27.5959 4.85646 26.9932 4.4313 26.677V26.6784Z" fill="#42A245"/>
<path d="M3.33352 28.7825L2.34298 28.0888C1.93125 27.7815 1.38823 27.8292 1.08093 28.2409L0.940698 28.4259C0.63339 28.8392 0.737815 29.418 1.13165 29.7298C1.36884 29.9162 2.15054 30.3712 2.15054 30.3712C2.56376 30.6785 3.14705 30.592 3.45585 30.1803L3.52447 30.0878C3.8094 29.7133 3.70946 29.0301 3.33352 28.784V28.7825Z" fill="#42A245"/>
<path d="M1.48042 30.2655C1.09106 29.9746 0.539102 30.0566 0.249696 30.446L0.184057 30.534C-0.0352357 30.8905 0.137812 31.4917 0.458546 31.8035C0.577889 31.9214 0.856853 32.084 1.02393 32.1451C1.27903 32.2391 1.63407 32.3405 2.13681 32.0989L2.24123 32.0273C2.67982 31.6603 2.5187 31.1307 2.13681 30.7891C1.98017 30.6489 1.48042 30.264 1.48042 30.264V30.2655Z" fill="#42A245"/>
<path d="M4.32397 23.6541C3.98981 23.5721 3.56614 23.5706 3.35282 23.7854C3.01866 24.1195 3.05745 24.4239 3.07087 24.6476C3.11115 25.3055 3.69444 25.5666 3.69444 25.5666C4.65962 25.028 5.16534 24.2553 5.16534 24.2553C4.93561 23.9883 4.62233 23.7272 4.32397 23.6541Z" fill="#42A245"/>
<path d="M40.428 42.5045C37.5518 45.6163 33.4375 47.5706 28.8756 47.5706C22.8905 47.5706 17.6767 44.2111 15.0169 39.2792L11.6723 40.771L13.264 39.7223L12.5629 38.3603L12.4286 36.7253C12.4286 36.7253 12.627 35.4364 13.901 33.6805C13.901 33.6805 14.0114 33.5 14.0114 33.4135C14.0114 33.4135 13.8548 30.5985 13.8026 29.3036C13.8026 29.3036 13.8339 29.1052 13.6459 28.9963C13.6459 28.9963 10.7041 27.6686 10.0447 27.1659C10.0447 27.1659 9.96269 27.1033 9.77324 27.1659C9.58527 27.2286 8.97961 27.8775 9.41819 28.9217C9.41819 28.9217 10.0612 30.3181 11.8543 30.8402C11.8543 30.8402 11.632 30.9729 11.2441 30.9401C11.2441 30.9401 11.0174 33.3509 10.8294 33.8312C10.8294 33.8312 9.3794 36.9192 8.25161 38.1947C8.25161 38.1947 8.16509 38.6601 8.25907 39.0674C8.25907 39.0674 7.92491 38.9003 7.90403 38.3469C7.90403 38.3469 7.12531 38.6392 5.26953 39.7417C5.26953 39.7417 6.33914 40.6054 6.82696 41.1932L7.48334 42.6238L5.78867 43.3772C10.0328 51.8341 18.7881 57.6536 28.8786 57.6536C36.5389 57.6536 43.4295 54.2985 48.1614 48.9833L40.4295 42.506L40.428 42.5045Z" fill="#42A245"/>
</g>
</g>
<mask id="path-18-inside-2_1393_1267" fill="white">
<path fill-rule="evenodd" clip-rule="evenodd" d="M46.4922 45.2767C43.4478 49.3993 39.2251 52.5021 34.3811 54.1758C29.5372 55.8494 24.2997 56.0152 19.3596 54.6512L20.3155 51.189C20.9551 52.0469 21.9811 52.603 23.1376 52.603C25.0765 52.603 26.6483 51.0402 26.6483 49.1124C26.6483 47.1847 25.0765 45.6219 23.1376 45.6219C22.6554 45.6219 22.1959 45.7186 21.7776 45.8935L22.7429 42.3973C25.205 43.0771 27.8154 42.9945 30.2297 42.1603C32.644 41.3262 34.7486 39.7797 36.266 37.725L38.8972 39.6681C38.0148 40.3709 37.6129 41.5715 37.9791 42.7089C38.4517 44.1769 40.0249 44.9838 41.4929 44.5112C42.3227 44.2441 42.9412 43.6253 43.2369 42.8727L46.4922 45.2767Z"/>
</mask>
<path fill-rule="evenodd" clip-rule="evenodd" d="M46.4922 45.2767C43.4478 49.3993 39.2251 52.5021 34.3811 54.1758C29.5372 55.8494 24.2997 56.0152 19.3596 54.6512L20.3155 51.189C20.9551 52.0469 21.9811 52.603 23.1376 52.603C25.0765 52.603 26.6483 51.0402 26.6483 49.1124C26.6483 47.1847 25.0765 45.6219 23.1376 45.6219C22.6554 45.6219 22.1959 45.7186 21.7776 45.8935L22.7429 42.3973C25.205 43.0771 27.8154 42.9945 30.2297 42.1603C32.644 41.3262 34.7486 39.7797 36.266 37.725L38.8972 39.6681C38.0148 40.3709 37.6129 41.5715 37.9791 42.7089C38.4517 44.1769 40.0249 44.9838 41.4929 44.5112C42.3227 44.2441 42.9412 43.6253 43.2369 42.8727L46.4922 45.2767Z" fill="#D9D9D9"/>
<path d="M34.3811 54.1758L37.8373 64.1788H37.8373L34.3811 54.1758ZM46.4922 45.2767L55.0057 51.5636L61.2926 43.0501L52.7791 36.7632L46.4922 45.2767ZM19.3596 54.6512L9.15805 51.8346L6.34146 62.0362L16.543 64.8528L19.3596 54.6512ZM20.3155 51.189L28.8002 44.8632L15.8708 27.5212L10.114 48.3724L20.3155 51.189ZM21.7776 45.8935L11.576 43.0769L5.78464 64.053L25.8607 55.6574L21.7776 45.8935ZM22.7429 42.3973L25.5594 32.1958L15.3579 29.3792L12.5413 39.5807L22.7429 42.3973ZM36.266 37.725L42.5529 29.2115L34.0394 22.9245L27.7525 31.4381L36.266 37.725ZM38.8972 39.6681L45.4912 47.946L56.2823 39.3502L45.1842 31.1546L38.8972 39.6681ZM37.9791 42.7089L48.0531 39.4656V39.4656L37.9791 42.7089ZM41.4929 44.5112L38.2496 34.4372L38.2496 34.4372L41.4929 44.5112ZM43.2369 42.8727L49.5238 34.3592L38.4296 26.1666L33.3866 39.0028L43.2369 42.8727ZM37.8373 64.1788C44.7039 61.8063 50.69 57.4078 55.0057 51.5636L37.9787 38.9898C36.2056 41.3909 33.7462 43.198 30.925 44.1727L37.8373 64.1788ZM16.543 64.8528C23.546 66.7863 30.9706 66.5513 37.8373 64.1788L30.925 44.1727C28.1038 45.1475 25.0534 45.244 22.1762 44.4497L16.543 64.8528ZM10.114 48.3724L9.15805 51.8346L29.5612 57.4678L30.5171 54.0056L10.114 48.3724ZM23.1376 42.0197C25.4496 42.0197 27.5194 43.1453 28.8002 44.8632L11.8308 57.5148C14.3909 60.9485 18.5125 63.1862 23.1376 63.1862V42.0197ZM16.065 49.1124C16.065 45.138 19.2889 42.0197 23.1376 42.0197V63.1862C30.8641 63.1862 37.2315 56.9424 37.2315 49.1124H16.065ZM23.1376 56.2052C19.2889 56.2052 16.065 53.0869 16.065 49.1124H37.2315C37.2315 41.2825 30.8641 35.0387 23.1376 35.0387V56.2052ZM25.8607 55.6574C25.0077 56.0141 24.081 56.2052 23.1376 56.2052V35.0387C21.2298 35.0387 19.384 35.4231 17.6944 36.1296L25.8607 55.6574ZM12.5413 39.5807L11.576 43.0769L31.9791 48.7101L32.9444 45.2139L12.5413 39.5807ZM26.7736 32.1573C26.3821 32.2926 25.9587 32.306 25.5594 32.1958L19.9263 52.5989C24.4513 53.8482 29.2488 53.6964 33.6858 52.1634L26.7736 32.1573ZM27.7525 31.4381C27.5064 31.7713 27.1651 32.0221 26.7736 32.1573L33.6858 52.1634C38.1228 50.6303 41.9908 47.7882 44.7795 44.0119L27.7525 31.4381ZM45.1842 31.1546L42.5529 29.2115L29.979 46.2385L32.6103 48.1816L45.1842 31.1546ZM48.0531 39.4656C49.0799 42.6548 47.9389 45.9963 45.4912 47.946L32.3033 31.3901C28.0908 34.7456 26.146 40.4882 27.9051 45.9522L48.0531 39.4656ZM38.2496 34.4372C42.3454 33.1186 46.7345 35.3699 48.0531 39.4656L27.9051 45.9522C30.1689 52.9839 37.7045 56.8491 44.7362 54.5852L38.2496 34.4372ZM33.3866 39.0028C34.2017 36.928 35.9308 35.1837 38.2496 34.4372L44.7362 54.5852C48.7145 53.3044 51.6807 50.3226 53.0872 46.7427L33.3866 39.0028ZM52.7791 36.7632L49.5238 34.3592L36.9499 51.3862L40.2053 53.7902L52.7791 36.7632Z" fill="#1272B9" mask="url(#path-18-inside-2_1393_1267)"/>
</g>
<defs>
<clipPath id="clip0_1393_1267">
<rect width="223" height="63" fill="white"/>
</clipPath>
<clipPath id="clip1_1393_1267">
<rect width="48.1996" height="51.6367" fill="white" transform="translate(0.0859375 6.01697)"/>
</clipPath>
</defs>
</svg>
