<svg width="24" height="24" viewBox="0 0 24 24" fill="none" xmlns="http://www.w3.org/2000/svg">
<rect width="24" height="24" rx="3.76349" fill="#2196F3"/>
<g clip-path="url(#clip0_4873_5067)">
<path d="M7.32939 5.31421H17.208C18.0235 5.3173 18.8047 5.64263 19.3813 6.21927C19.958 6.79592 20.2833 7.57713 20.2864 8.39263V16.7653C20.2871 17.5803 19.9642 18.3623 19.3886 18.9394L19.3599 18.9655C18.787 19.5273 18.0169 19.8425 17.2145 19.8437H7.32939C6.92533 19.8434 6.5253 19.7634 6.15223 19.6082C5.77915 19.453 5.44038 19.2257 5.15532 18.9394L5.12922 18.9107C4.56657 18.3383 4.25119 17.5679 4.25098 16.7653V8.39263C4.25339 7.57692 4.57849 6.79531 5.15529 6.21852C5.73208 5.64172 6.51369 5.31662 7.32939 5.31421ZM11.2978 11.5428L14.5928 13.8435C14.6614 13.8871 14.7182 13.9471 14.7581 14.0179C14.798 14.0888 14.8198 14.1684 14.8216 14.2497C14.8234 14.3309 14.8052 14.4114 14.7685 14.484C14.7317 14.5565 14.6777 14.6189 14.6111 14.6656L11.3265 16.9349C11.2386 17.0082 11.1278 17.0484 11.0133 17.0485C10.948 17.049 10.8833 17.0366 10.8228 17.012C10.7624 16.9873 10.7074 16.951 10.6611 16.905C10.6147 16.859 10.5779 16.8043 10.5528 16.7441C10.5277 16.6838 10.5148 16.6192 10.5148 16.5539V11.946C10.5136 11.8546 10.5379 11.7646 10.585 11.6861C10.6321 11.6077 10.7002 11.544 10.7815 11.5021C10.8628 11.4602 10.9542 11.4418 11.0454 11.449C11.1366 11.4562 11.224 11.4887 11.2978 11.5428ZM5.21013 8.76846H7.03708L8.21938 6.27336H7.32939C6.76786 6.27508 6.22981 6.49891 5.83275 6.89598C5.43568 7.29305 5.21185 7.83109 5.21013 8.39263V8.76846ZM9.08588 6.27336L7.90488 8.76846H11.2143L12.3979 6.27727L9.08588 6.27336ZM13.2618 6.27336L12.0703 8.76846H15.2936L16.4785 6.27336H13.2618ZM17.3489 6.27336L16.1601 8.76846H19.3273V8.39263C19.3249 7.85471 19.1191 7.33761 18.7511 6.94521C18.3832 6.55281 17.8804 6.31419 17.3437 6.27727L17.3489 6.27336ZM19.3325 9.75501H5.21013V16.7653C5.2123 17.3172 5.43005 17.8463 5.81694 18.2399L5.83912 18.2608C6.23341 18.6584 6.76943 18.8832 7.32939 18.8859H17.208C17.7589 18.8854 18.288 18.6701 18.6826 18.2856L18.7035 18.2621C18.9009 18.0662 19.0576 17.8333 19.1646 17.5766C19.2717 17.32 19.327 17.0447 19.3273 16.7666V9.75893L19.3325 9.75501Z" fill="white"/>
</g>
<defs>
<clipPath id="clip0_4873_5067">
<rect width="16.0354" height="14.5295" fill="white" transform="translate(4.25098 5.31421)"/>
</clipPath>
</defs>
</svg>
