<svg width="24" height="24" viewBox="0 0 24 24" fill="none" xmlns="http://www.w3.org/2000/svg">
<rect width="24" height="24" rx="3.76349" fill="#2196F3"/>
<path d="M15.346 16.1209C16.0921 16.1209 16.6969 16.7257 16.6969 17.4718V19.0171L16.6908 19.1008C16.4509 20.7421 14.9767 21.5313 12.5029 21.5313C10.0381 21.5313 8.54035 20.7511 8.21705 19.1287L8.20588 19.0156V17.4718C8.20588 16.7257 8.81067 16.1209 9.55672 16.1209H15.346ZM15.7273 11.4894L20.3634 11.4895C21.1095 11.4895 21.7143 12.0943 21.7143 12.8403V14.3857L21.7082 14.4694C21.4683 16.1106 19.9941 16.8998 17.5203 16.8998L17.3905 16.8986C17.1523 16.0472 16.3966 15.412 15.4841 15.3534L15.346 15.349L14.6342 15.3496C15.4215 14.7128 15.925 13.7389 15.925 12.6473C15.925 12.2413 15.8553 11.8516 15.7273 11.4894ZM4.53932 11.4895L9.17547 11.4894C9.04745 11.8516 8.97779 12.2413 8.97779 12.6473C8.97779 13.6746 9.42375 14.5978 10.1326 15.2337L10.2686 15.3496L9.55672 15.349C8.58242 15.349 7.76142 16.0054 7.51183 16.9001L7.48553 16.8998C5.02069 16.8998 3.52295 16.1196 3.19964 14.4973L3.18848 14.3841V12.8403C3.18848 12.0943 3.79327 11.4895 4.53932 11.4895ZM12.4514 9.94566C13.9435 9.94566 15.1531 11.1552 15.1531 12.6473C15.1531 14.1394 13.9435 15.349 12.4514 15.349C10.9593 15.349 9.7497 14.1394 9.7497 12.6473C9.7497 11.1552 10.9593 9.94566 12.4514 9.94566ZM17.4688 5.31421C18.9609 5.31421 20.1705 6.52379 20.1705 8.01589C20.1705 9.50799 18.9609 10.7176 17.4688 10.7176C15.9767 10.7176 14.7671 9.50799 14.7671 8.01589C14.7671 6.52379 15.9767 5.31421 17.4688 5.31421ZM7.43397 5.31421C8.92607 5.31421 10.1357 6.52379 10.1357 8.01589C10.1357 9.50799 8.92607 10.7176 7.43397 10.7176C5.94188 10.7176 4.73229 9.50799 4.73229 8.01589C4.73229 6.52379 5.94188 5.31421 7.43397 5.31421Z" fill="white"/>
</svg>
