<svg width="24" height="24" viewBox="0 0 24 24" fill="none" xmlns="http://www.w3.org/2000/svg">
<rect width="24" height="24" rx="3.76349" fill="#2196F3"/>
<path d="M3.18848 11.163C3.23197 10.8461 3.26392 10.527 3.32073 10.2128C3.67533 8.25292 4.60732 6.61439 6.09895 5.29939C7.37356 4.17568 8.86076 3.49177 10.5441 3.26987C12.7063 2.9845 14.7088 3.44739 16.5018 4.69182C18.4785 6.06407 19.7091 7.95024 20.0784 10.3313C20.5244 13.2085 19.6878 15.7071 17.6286 17.7677C16.3043 19.0929 14.6857 19.8598 12.8306 20.1243C12.6291 20.1531 12.4263 20.1744 12.2244 20.1993H11.1947C10.8721 20.1558 10.5477 20.1234 10.2277 20.0675C8.81105 19.8189 7.53866 19.246 6.40784 18.357C6.28225 18.2585 6.19393 18.1462 6.23165 17.9763C6.28935 17.7166 6.55874 17.6323 6.79262 17.7943C7.11527 18.0175 7.42948 18.2563 7.76633 18.4556C10.8392 20.2743 14.8615 19.7133 17.3197 17.1206C18.9263 15.4261 19.6936 13.3984 19.4815 11.0773C19.2059 8.06164 17.6574 5.84616 14.9107 4.57821C10.7753 2.6694 5.90634 4.71889 4.35879 9.00384C3.39351 11.6769 3.82179 14.1853 5.50337 16.4775C5.53931 16.5268 5.5797 16.5729 5.61299 16.6235C5.72438 16.7922 5.69687 16.983 5.54775 17.0971C5.39952 17.2102 5.19847 17.1929 5.07598 17.0301C4.85363 16.734 4.62907 16.4371 4.43646 16.1216C3.72726 14.9597 3.31896 13.6971 3.21688 12.3377C3.21333 12.2893 3.19868 12.2418 3.18936 12.1939C3.18936 11.8509 3.18936 11.5073 3.18936 11.1643L3.18848 11.163Z" fill="white"/>
<path d="M11.6911 17.9598C8.60577 17.9301 5.95935 15.6422 5.5222 12.6066C5.06908 9.46181 7.0196 6.4892 10.1018 5.67349C11.8291 5.21637 13.4685 5.47822 14.9979 6.40843C15.143 6.49675 15.2344 6.61303 15.2012 6.78922C15.1714 6.94721 15.068 7.05506 14.9078 7.05861C14.8106 7.06083 14.7014 7.02089 14.6158 6.96896C13.678 6.4 12.6644 6.12528 11.5673 6.14659C9.37177 6.18875 7.35867 7.57431 6.54695 9.60827C5.38152 12.5294 6.80525 15.7749 9.74635 16.9013C12.8521 18.0907 16.387 16.1966 17.1051 12.9444C17.4881 11.2082 17.1153 9.63224 16.032 8.22138C15.9623 8.13084 15.9059 8.00791 15.8997 7.89695C15.8917 7.75627 15.9889 7.65109 16.1323 7.60892C16.2889 7.56277 16.4132 7.61736 16.5139 7.74029C16.8623 8.16679 17.153 8.62924 17.3771 9.13251C19.0294 12.8423 16.8197 17.0709 12.8277 17.8289C12.454 17.8999 12.0706 17.9172 11.6915 17.9598H11.6911Z" fill="white"/>
<path d="M11.3476 14.0135V12.007C10.8812 11.889 10.5013 11.6413 10.2447 11.2251C10.0561 10.9193 9.98023 10.586 9.99621 10.2269C10.0282 9.50442 10.4848 8.96786 11.3551 8.65675C11.3551 8.47701 11.3529 8.29062 11.3556 8.10377C11.3591 7.87566 11.4887 7.73364 11.6902 7.73231C11.893 7.73098 12.024 7.87211 12.0293 8.09934C12.0315 8.19342 12.0297 8.28751 12.0297 8.3816C12.0297 8.46991 12.0297 8.55823 12.0297 8.6572C12.0839 8.67495 12.134 8.6927 12.1855 8.70779C12.8783 8.91328 13.3847 9.57854 13.3891 10.2891C13.3904 10.5185 13.2671 10.665 13.0665 10.6712C12.8628 10.6778 12.7327 10.5496 12.7159 10.3157C12.6901 9.95577 12.5383 9.66996 12.233 9.47158C12.1962 9.44762 12.1562 9.42765 12.1163 9.40901C12.0972 9.40013 12.0746 9.39924 12.0413 9.39214V11.3799C12.9631 11.731 13.39 12.2631 13.39 13.058C13.39 13.8484 12.9662 14.3756 12.0297 14.7396C12.0297 14.9224 12.0324 15.1101 12.0288 15.2979C12.0248 15.5229 11.8886 15.6644 11.6862 15.6613C11.4918 15.6582 11.3605 15.5184 11.356 15.3023C11.3525 15.1146 11.3551 14.9268 11.3551 14.7848C11.0844 14.6317 10.8208 14.5216 10.6038 14.3517C10.2039 14.0388 10.0069 13.6065 9.99577 13.0957C9.99088 12.8769 10.1165 12.7327 10.31 12.7229C10.5159 12.7122 10.6526 12.8405 10.6681 13.07C10.6934 13.4432 10.8505 13.7374 11.1745 13.9336C11.2238 13.9638 11.2801 13.9829 11.3476 14.0139V14.0135ZM12.0386 13.9971C12.426 13.8954 12.7216 13.4725 12.7145 13.046C12.7074 12.6177 12.4118 12.2081 12.0386 12.1202V13.9971ZM11.3467 9.39436C10.9433 9.51064 10.6526 9.93713 10.6704 10.3663C10.6877 10.7932 10.9828 11.1922 11.3467 11.2725V9.3948V9.39436Z" fill="white"/>
</svg>
