<svg width="24" height="24" viewBox="0 0 24 24" fill="none" xmlns="http://www.w3.org/2000/svg">
<rect width="24" height="24" rx="3.76349" fill="#2196F3"/>
<path d="M4.42773 19.7955V18.5334C4.42773 15.9775 6.49967 13.9056 9.05553 13.9056H11.5798C14.1357 13.9056 16.2076 15.9775 16.2076 18.5334V19.7955M6.95199 19.7955V17.2713M13.6833 19.7955V17.2713M14.9455 7.17428L15.2288 6.7493C15.5318 6.29467 16.1547 6.18798 16.5918 6.51583C17.0551 6.86335 17.1033 7.54071 16.6938 7.95027L16.0844 8.55963C15.8939 8.7501 15.7869 9.00845 15.7869 9.27782M15.7869 10.5399V10.7082M12.6973 6.24704C13.3834 5.28062 14.5115 4.65002 15.7869 4.65002C17.8781 4.65002 19.5733 6.34525 19.5733 8.4364C19.5733 10.5276 17.8781 12.2228 15.7869 12.2228C14.7392 12.2228 13.7909 11.7973 13.1054 11.1097M13.6833 8.85712C13.6833 6.9983 12.1764 5.49144 10.3177 5.49144C8.45885 5.49144 6.95199 6.9983 6.95199 8.85712C6.95199 10.716 8.45885 12.2228 10.3177 12.2228C11.017 12.2228 11.6666 12.0095 12.2049 11.6443C13.0971 11.039 13.6833 10.0165 13.6833 8.85712Z" stroke="white" stroke-width="1.10833" stroke-linecap="round" stroke-linejoin="round"/>
</svg>
