<svg width="24" height="24" viewBox="0 0 24 24" fill="none" xmlns="http://www.w3.org/2000/svg">
<rect width="24" height="24" rx="3.76349" fill="#2196F3"/>
<path d="M8.65667 7.11196C8.43919 7.25958 8.22958 7.41942 8.03177 7.59414C7.84397 7.76002 7.66852 7.9383 7.50287 8.12481L6.57263 7.69394C6.80994 7.40728 7.06939 7.1379 7.35045 6.88965C7.65811 6.61789 8.00344 6.35742 8.36353 6.12314L8.65667 7.11196Z" fill="#D9D9D9" stroke="white" stroke-width="3.48231"/>
<path d="M7.98214 16.4851C8.17897 16.6905 8.393 16.8837 8.62817 17.0609L8.36429 17.9774C7.91865 17.6818 7.50842 17.3379 7.13934 16.9531L7.98214 16.4851Z" fill="#D9D9D9" stroke="white" stroke-width="3.48231"/>
<mask id="path-4-inside-1_4873_5029" fill="white">
<path d="M9.93066 3.50779C11.6582 3.03088 13.4897 3.08952 15.1836 3.67478C16.8775 4.26003 18.3543 5.34453 19.4189 6.78611L15.8428 9.42771C15.3121 8.70912 14.5758 8.16767 13.7314 7.87595C12.8873 7.5844 11.9742 7.55525 11.1133 7.79294L10.7754 6.57126C10.9216 6.63242 11.0824 6.66596 11.251 6.66599C11.929 6.66599 12.4785 6.11946 12.4785 5.44529C12.4785 4.77111 11.929 4.22458 11.251 4.22458C10.8465 4.22465 10.4883 4.41961 10.2646 4.7197L9.93066 3.50779Z"/>
</mask>
<path d="M9.93066 3.50779C11.6582 3.03088 13.4897 3.08952 15.1836 3.67478C16.8775 4.26003 18.3543 5.34453 19.4189 6.78611L15.8428 9.42771C15.3121 8.70912 14.5758 8.16767 13.7314 7.87595C12.8873 7.5844 11.9742 7.55525 11.1133 7.79294L10.7754 6.57126C10.9216 6.63242 11.0824 6.66596 11.251 6.66599C11.929 6.66599 12.4785 6.11946 12.4785 5.44529C12.4785 4.77111 11.929 4.22458 11.251 4.22458C10.8465 4.22465 10.4883 4.41961 10.2646 4.7197L9.93066 3.50779Z" fill="#D9D9D9"/>
<path d="M9.93066 3.50779L9.004 0.151034L5.64873 1.07729L6.5735 4.43297L9.93066 3.50779ZM15.1836 3.67478L16.3208 0.383392L16.3208 0.383387L15.1836 3.67478ZM19.4189 6.78611L21.488 9.58712L24.2887 7.51827L22.2201 4.71732L19.4189 6.78611ZM15.8428 9.42771L13.0415 11.4964L15.1104 14.298L17.9118 12.2287L15.8428 9.42771ZM13.7314 7.87595L14.8686 4.58456L14.8682 4.58442L13.7314 7.87595ZM11.1133 7.79294L7.75698 8.72122L8.68484 12.076L12.0401 11.1497L11.1133 7.79294ZM10.7754 6.57126L12.119 3.3586L5.50922 0.594223L7.41909 7.49955L10.7754 6.57126ZM11.251 6.66599L11.2504 10.1483H11.251V6.66599ZM12.4785 5.44529L15.9608 5.44529V5.44529H12.4785ZM11.251 4.22458V0.742272L11.2504 0.742272L11.251 4.22458ZM10.2646 4.7197L6.90749 5.64488L8.80011 12.5126L13.0569 6.80056L10.2646 4.7197ZM9.93066 3.50779L10.8573 6.86454C11.9053 6.57524 13.0172 6.61057 14.0464 6.96617L15.1836 3.67478L16.3208 0.383387C13.9622 -0.431535 11.4111 -0.513478 9.004 0.151034L9.93066 3.50779ZM15.1836 3.67478L14.0464 6.96616C15.0754 7.3217 15.9718 7.98024 16.6178 8.85489L19.4189 6.78611L22.2201 4.71732C20.7368 2.70882 18.6795 1.19836 16.3208 0.383392L15.1836 3.67478ZM19.4189 6.78611L17.3499 3.9851L13.7738 6.6267L15.8428 9.42771L17.9118 12.2287L21.488 9.58712L19.4189 6.78611ZM15.8428 9.42771L18.6441 7.35906C17.6956 6.0747 16.3793 5.10651 14.8686 4.58456L13.7314 7.87595L12.5942 11.1673C12.7722 11.2288 12.9286 11.3435 13.0415 11.4964L15.8428 9.42771ZM13.7314 7.87595L14.8682 4.58442C13.3594 4.0633 11.7268 4.01095 10.1865 4.43622L11.1133 7.79294L12.0401 11.1497C12.2215 11.0996 12.4152 11.1055 12.5946 11.1675L13.7314 7.87595ZM11.1133 7.79294L14.4696 6.86466L14.1317 5.64298L10.7754 6.57126L7.41909 7.49955L7.75698 8.72122L11.1133 7.79294ZM10.7754 6.57126L9.43177 9.78392C10.0001 10.0216 10.6171 10.1482 11.2504 10.1483L11.251 6.66599L11.2515 3.18368C11.5477 3.18372 11.8432 3.24324 12.119 3.3586L10.7754 6.57126ZM11.251 6.66599V10.1483C13.8341 10.1483 15.9608 8.06079 15.9608 5.44529L12.4785 5.44529L8.99621 5.44528C8.99621 4.17813 10.024 3.18368 11.251 3.18368V6.66599ZM12.4785 5.44529H15.9608C15.9608 2.82978 13.8341 0.742272 11.251 0.742272V4.22458V7.70689C10.024 7.70689 8.99621 6.71245 8.99621 5.44529H12.4785ZM11.251 4.22458L11.2504 0.742272C9.70032 0.742513 8.32517 1.49457 7.47242 2.63884L10.2646 4.7197L13.0569 6.80056C12.6514 7.34465 11.9927 7.70678 11.2515 7.70689L11.251 4.22458ZM10.2646 4.7197L13.6218 3.79452L13.2878 2.58261L9.93066 3.50779L6.5735 4.43297L6.90749 5.64488L10.2646 4.7197Z" fill="white" mask="url(#path-4-inside-1_4873_5029)"/>
<path d="M11.0557 4.46912C11.595 4.46912 12.0322 4.90639 12.0322 5.44568C12.0322 5.98502 11.595 6.42224 11.0557 6.42224C10.8411 6.42224 10.6436 6.35202 10.4824 6.23474L10.4893 6.25818L10.2627 6.48181L9.89648 5.20154H10.1113C10.2199 4.78058 10.6008 4.46912 11.0557 4.46912Z" fill="white"/>
<path d="M19.2586 8.45533C19.4238 8.96862 19.1414 9.51878 18.6283 9.68418C18.1149 9.84947 17.5647 9.56727 17.3994 9.05388C17.3338 8.85008 17.3397 8.641 17.4016 8.45199L17.3829 8.46415L17.0997 8.31732L18.2071 7.57608L18.2729 7.78059C18.7065 7.75547 19.1193 8.02274 19.2586 8.45533Z" fill="white"/>
<path d="M11.0557 19.5957C11.595 19.5957 12.0322 19.1585 12.0322 18.6191C12.0322 18.0798 11.595 17.6426 11.0557 17.6426C10.8411 17.6426 10.6435 17.7128 10.4824 17.8301L10.4893 17.8066L10.2627 17.583L9.89648 18.8633H10.1113C10.2199 19.2843 10.6008 19.5957 11.0557 19.5957Z" fill="white"/>
<mask id="mask0_4873_5029" style="mask-type:alpha" maskUnits="userSpaceOnUse" x="1" y="8" width="9" height="9">
<path d="M7.99921 10.0842L5.78928 9.1687L2.53578 8.25317L1.0625 14.7839L5.60512 16.3098L7.93782 15.3332L9.28833 13.8684L7.99921 10.0842Z" fill="#D9D9D9"/>
</mask>
<g mask="url(#mask0_4873_5029)">
<g clip-path="url(#clip0_4873_5029)">
<path d="M13.2594 3.54419C9.64712 3.54419 6.52472 5.6764 5.08169 8.74767L6.30873 9.29233L5.62113 9.13947L5.60756 9.18173C5.60756 9.18173 5.60756 9.18277 5.60704 9.18329L5.6013 9.1979C5.55539 9.31215 5.24811 10.0253 4.60746 10.4771C4.60746 10.4771 4.94813 10.7348 5.00865 10.9127C5.00865 10.9127 5.06343 11.0536 5.00865 11.2164C5.00865 11.2164 4.84588 11.5722 4.53077 11.5398C4.53077 11.5398 4.66745 11.7793 4.58711 11.9875C4.54016 12.1074 4.43582 12.2598 4.17131 12.2634C4.17131 12.2634 4.32052 12.5467 4.10558 12.7439C3.98558 12.854 3.80455 12.879 3.671 12.8697C3.61517 12.866 3.51866 12.8337 3.46492 12.8039C3.46492 12.8039 3.31311 12.9062 3.37363 13.0872C3.37363 13.0872 3.4284 13.2077 3.52701 13.2296C3.52701 13.2296 3.60422 13.2536 3.69187 13.1879L4.39825 12.709L4.44781 12.6787C4.44781 12.6787 4.49738 12.6631 4.51251 12.6991C4.52033 12.7178 4.52085 12.757 4.49738 12.7778C4.49738 12.7778 3.76908 13.2948 3.65952 13.3799C3.54996 13.4649 3.52179 13.55 3.53483 13.6574C3.54787 13.7665 3.62196 13.9084 3.65535 13.9386C3.69395 13.9731 3.78003 14.0143 3.91463 13.9705C4.04975 13.9266 4.87613 13.3199 4.87613 13.3199C4.87613 13.3199 4.91213 13.2933 4.94813 13.2964C4.97213 13.2985 5.02586 13.3585 4.97943 13.4023C4.93404 13.4446 4.90118 13.4675 4.8464 13.5082C4.79162 13.5484 3.94385 14.1369 3.94385 14.1369C3.94385 14.1369 3.82281 14.2052 3.88907 14.4353C3.94176 14.6179 4.01793 14.6674 4.06384 14.6961C4.10923 14.7243 4.20366 14.7374 4.2913 14.6914C4.39564 14.6361 5.39888 13.8943 5.39888 13.8943C5.39888 13.8943 5.43071 13.887 5.45262 13.9C5.47922 13.9157 5.4834 13.9689 5.43697 14.0158C5.37958 14.0748 5.32063 14.1202 5.32063 14.1202L4.39982 14.8C4.39982 14.8 4.2793 14.908 4.3633 15.0556C4.3633 15.0556 4.47599 15.221 4.5965 15.2758C4.71701 15.3305 4.82605 15.2617 4.88865 15.2325C4.95074 15.2032 5.92006 14.6455 5.92006 14.6455C5.92006 14.6455 6.05936 14.572 6.11727 14.4442C6.1757 14.3163 6.63845 13.6006 6.77566 13.2166C6.77566 13.2166 6.88574 12.83 6.9113 12.384C6.9113 12.384 6.93478 12.2953 6.86748 12.2488C6.86748 12.2488 6.55081 12.0109 6.37395 11.7501C6.27795 11.6082 6.16683 11.2388 6.29778 11.0087C6.41047 10.811 6.53463 10.7432 6.53463 10.7432C6.53463 10.7432 6.5988 10.7046 6.6588 10.7432C6.71827 10.7808 7.45022 11.2096 7.69073 11.2774C7.69073 11.2774 7.54726 10.8121 7.51544 10.4255L7.77159 9.94237L8.30686 10.1803C9.19898 8.34231 11.0844 7.07143 13.261 7.07143C14.8803 7.07143 16.3385 7.77521 17.3464 8.89218L20.0494 6.62798C18.3914 4.73837 15.9624 3.54419 13.2594 3.54419Z" fill="white"/>
<path d="M4.70963 10.7694C4.70963 10.7694 4.47817 10.575 4.39894 10.5124C4.25245 10.3977 3.97146 10.4175 3.86043 10.5661L3.8354 10.6C3.72437 10.7491 3.7546 10.9607 3.90422 11.0702C3.99857 11.139 4.17634 11.2944 4.28268 11.3418C4.41145 11.4002 4.64239 11.4221 4.75342 11.273L4.77845 11.2391C4.88949 11.09 4.85821 10.8794 4.70963 10.7689V10.7694Z" fill="white"/>
<path d="M4.32548 11.5054L3.97933 11.2629C3.83545 11.1556 3.64569 11.1722 3.53831 11.3161L3.4893 11.3808C3.38191 11.5252 3.4184 11.7274 3.55603 11.8364C3.63892 11.9015 3.91208 12.0605 3.91208 12.0605C4.05648 12.1679 4.26031 12.1377 4.36823 11.9938L4.39221 11.9615C4.49177 11.8306 4.45685 11.5919 4.32548 11.5059V11.5054Z" fill="white"/>
<path d="M3.67773 12.0242C3.54167 11.9225 3.34879 11.9512 3.24766 12.0872L3.22472 12.118C3.14809 12.2426 3.20856 12.4527 3.32064 12.5616C3.36234 12.6028 3.45983 12.6596 3.51821 12.681C3.60736 12.7138 3.73143 12.7493 3.90711 12.6648L3.9436 12.6398C4.09686 12.5116 4.04056 12.3265 3.90711 12.2071C3.85237 12.1581 3.67773 12.0236 3.67773 12.0236V12.0242Z" fill="white"/>
<path d="M4.67235 9.71198C4.55558 9.68331 4.40753 9.68279 4.33298 9.75786C4.21621 9.87463 4.22976 9.98098 4.23446 10.0592C4.24853 10.2891 4.45236 10.3803 4.45236 10.3803C4.78965 10.1921 4.96637 9.92207 4.96637 9.92207C4.88609 9.82876 4.77661 9.73753 4.67235 9.71198Z" fill="white"/>
<path d="M17.2985 16.3043C16.2926 17.3926 14.8538 18.076 13.2584 18.076C11.1653 18.076 9.34195 16.9012 8.41175 15.1764L7.24209 15.6981L7.79874 15.3313L7.55354 14.855L7.50659 14.2832C7.50659 14.2832 7.57598 13.8325 8.02151 13.2184C8.02151 13.2184 8.06012 13.1553 8.06012 13.1251C8.06012 13.1251 8.00534 12.1406 7.98708 11.6878C7.98708 11.6878 7.99803 11.6184 7.9323 11.5803C7.9323 11.5803 6.9035 11.116 6.67291 10.9402C6.67291 10.9402 6.64421 10.9182 6.57796 10.9402C6.51222 10.9621 6.30041 11.189 6.45379 11.5542C6.45379 11.5542 6.67864 12.0425 7.30573 12.2251C7.30573 12.2251 7.228 12.2715 7.09236 12.2601C7.09236 12.2601 7.01306 13.1031 6.94732 13.2711C6.94732 13.2711 6.44023 14.3511 6.04582 14.7971C6.04582 14.7971 6.01556 14.9599 6.04843 15.1023C6.04843 15.1023 5.93156 15.0439 5.92426 14.8503C5.92426 14.8503 5.65193 14.9526 5.00293 15.3381C5.00293 15.3381 5.37699 15.6402 5.54759 15.8457L5.77714 16.3461L5.18448 16.6095C6.66873 19.5671 9.73062 21.6022 13.2594 21.6022C15.9384 21.6022 18.3481 20.4289 20.003 18.5701L17.299 16.3048L17.2985 16.3043Z" fill="white"/>
</g>
</g>
<mask id="path-16-inside-2_4873_5029" fill="white">
<path d="M16.7637 15.3127C16.4549 15.5585 16.3143 15.9784 16.4424 16.3762C16.6078 16.8894 17.1576 17.1714 17.6709 17.0061C17.9611 16.9127 18.1769 16.6961 18.2803 16.4329L19.4189 17.2747C18.3543 18.7161 16.8774 19.8008 15.1836 20.386C13.4897 20.9712 11.6582 21.0299 9.93066 20.553L10.2646 19.3411C10.4883 19.6411 10.8466 19.8361 11.251 19.8362C11.9289 19.8362 12.4784 19.2895 12.4785 18.6155C12.4785 17.9413 11.929 17.3948 11.251 17.3948C11.0824 17.3948 10.9216 17.4283 10.7754 17.4895L11.1133 16.2678C11.9741 16.5055 12.8873 16.4763 13.7314 16.1848C14.5757 15.8931 15.3121 15.3516 15.8428 14.6331L16.7637 15.3127Z"/>
</mask>
<path d="M16.7637 15.3127C16.4549 15.5585 16.3143 15.9784 16.4424 16.3762C16.6078 16.8894 17.1576 17.1714 17.6709 17.0061C17.9611 16.9127 18.1769 16.6961 18.2803 16.4329L19.4189 17.2747C18.3543 18.7161 16.8774 19.8008 15.1836 20.386C13.4897 20.9712 11.6582 21.0299 9.93066 20.553L10.2646 19.3411C10.4883 19.6411 10.8466 19.8361 11.251 19.8362C11.9289 19.8362 12.4784 19.2895 12.4785 18.6155C12.4785 17.9413 11.929 17.3948 11.251 17.3948C11.0824 17.3948 10.9216 17.4283 10.7754 17.4895L11.1133 16.2678C11.9741 16.5055 12.8873 16.4763 13.7314 16.1848C14.5757 15.8931 15.3121 15.3516 15.8428 14.6331L16.7637 15.3127Z" fill="#D9D9D9"/>
<path d="M16.7637 15.3127L18.9325 18.0372L22.4862 15.2083L18.8316 12.5109L16.7637 15.3127ZM16.4424 16.3762L13.1276 17.4434L13.1279 17.4443L16.4424 16.3762ZM17.6709 17.0061L18.7381 20.3209L18.7382 20.3208L17.6709 17.0061ZM18.2803 16.4329L20.3504 13.6327L16.6985 10.9329L15.0388 15.1603L18.2803 16.4329ZM19.4189 17.2747L22.2201 19.3435L24.288 16.5437L21.4891 14.4745L19.4189 17.2747ZM15.1836 20.386L16.3208 23.6774L16.3208 23.6774L15.1836 20.386ZM9.93066 20.553L6.5735 19.6278L5.64872 22.9835L9.00403 23.9097L9.93066 20.553ZM10.2646 19.3411L13.0565 17.2597L8.79968 11.5498L6.90749 18.4159L10.2646 19.3411ZM11.251 19.8362L11.2504 23.3185H11.251L11.251 19.8362ZM12.4785 18.6155L15.9608 18.6162V18.6155H12.4785ZM11.251 17.3948L11.251 13.9125L11.2504 13.9125L11.251 17.3948ZM10.7754 17.4895L7.41909 16.5612L5.50922 23.4665L12.119 20.7022L10.7754 17.4895ZM11.1133 16.2678L12.04 12.9111L8.68483 11.9848L7.75698 15.3395L11.1133 16.2678ZM13.7314 16.1848L14.8682 19.4764L14.8686 19.4762L13.7314 16.1848ZM15.8428 14.6331L17.9107 11.8312L15.1097 9.76394L13.0416 12.5643L15.8428 14.6331ZM16.7637 15.3127L14.5949 12.5883C13.1898 13.7068 12.5411 15.6215 13.1276 17.4434L16.4424 16.3762L19.7571 15.3091C20.0875 16.3352 19.72 17.4103 18.9325 18.0372L16.7637 15.3127ZM16.4424 16.3762L13.1279 17.4443C13.8831 19.7878 16.3945 21.0754 18.7381 20.3209L17.6709 17.0061L16.6037 13.6913C17.9207 13.2674 19.3324 13.9911 19.7568 15.3081L16.4424 16.3762ZM17.6709 17.0061L18.7382 20.3208C20.0682 19.8926 21.0544 18.8958 21.5217 17.7055L18.2803 16.4329L15.0388 15.1603C15.2994 14.4965 15.8541 13.9327 16.6036 13.6914L17.6709 17.0061ZM18.2803 16.4329L16.2101 19.2331L17.3488 20.0748L19.4189 17.2747L21.4891 14.4745L20.3504 13.6327L18.2803 16.4329ZM19.4189 17.2747L16.6178 15.2058C15.9718 16.0805 15.0752 16.7391 14.0464 17.0946L15.1836 20.386L16.3208 23.6774C18.6795 22.8624 20.7368 21.3518 22.2201 19.3435L19.4189 17.2747ZM15.1836 20.386L14.0464 17.0946C13.0172 17.4502 11.9052 17.4855 10.8573 17.1962L9.93066 20.553L9.00403 23.9097C11.4111 24.5742 13.9622 24.4923 16.3208 23.6774L15.1836 20.386ZM9.93066 20.553L13.2878 21.4782L13.6218 20.2662L10.2646 19.3411L6.90749 18.4159L6.5735 19.6278L9.93066 20.553ZM10.2646 19.3411L7.4728 21.4224C8.32517 22.5658 9.69997 23.3183 11.2504 23.3185L11.251 19.8362L11.2515 16.3539C11.9932 16.354 12.6514 16.7163 13.0565 17.2597L10.2646 19.3411ZM11.251 19.8362L11.251 23.3185C13.8348 23.3185 15.9603 21.2303 15.9608 18.6162L12.4785 18.6155L8.99621 18.6147C8.99648 17.3488 10.0231 16.3539 11.251 16.3539L11.251 19.8362ZM12.4785 18.6155H15.9608C15.9608 16 13.8341 13.9125 11.251 13.9125L11.251 17.3948L11.251 20.8771C10.024 20.8771 8.99621 19.8826 8.99621 18.6155H12.4785ZM11.251 17.3948L11.2504 13.9125C10.6171 13.9126 10.0001 14.0392 9.43177 14.2768L10.7754 17.4895L12.119 20.7022C11.8432 20.8175 11.5477 20.877 11.2515 20.8771L11.251 17.3948ZM10.7754 17.4895L14.1317 18.4178L14.4696 17.1961L11.1133 16.2678L7.75698 15.3395L7.41909 16.5612L10.7754 17.4895ZM11.1133 16.2678L10.1866 19.6246C11.7268 20.0498 13.3594 19.9974 14.8682 19.4764L13.7314 16.1848L12.5947 12.8933C12.4152 12.9552 12.2215 12.9612 12.04 12.9111L11.1133 16.2678ZM13.7314 16.1848L14.8686 19.4762C16.3794 18.9542 17.6956 17.9859 18.644 16.7018L15.8428 14.6331L13.0416 12.5643C12.9286 12.7172 12.772 12.832 12.5942 12.8934L13.7314 16.1848ZM15.8428 14.6331L13.7748 17.4349L14.6957 18.1146L16.7637 15.3127L18.8316 12.5109L17.9107 11.8312L15.8428 14.6331Z" fill="white" mask="url(#path-16-inside-2_4873_5029)"/>
<defs>
<clipPath id="clip0_4873_5029">
<rect width="16.8563" height="18.0583" fill="white" transform="translate(3.19043 3.54419)"/>
</clipPath>
</defs>
</svg>
